<svg width="20" height="24" viewBox="0 0 20 24" fill="none" xmlns="http://www.w3.org/2000/svg">
<path d="M19.9325 21.3204C20.1509 20.3149 19.7981 19.1351 19.4637 18.3225C19.0685 17.3611 18.4621 16.3501 17.8413 15.6189C15.7085 13.1058 12.3974 11.799 8.98304 12.1228C5.58789 12.445 2.61914 14.3368 1.04076 17.1837C-0.0224261 19.1025 -0.281621 20.8463 0.31197 22.0943C0.769564 23.0572 1.72235 23.6979 3.14233 24H16.8309C18.2749 23.8559 19.6365 22.68 19.9317 21.3204H19.9325ZM18.4093 21.4785C18.1733 21.9711 17.7165 22.3298 17.0109 22.5738L16.9869 22.5785C15.2086 22.642 13.407 22.6583 11.6214 22.6583C10.6286 22.6583 9.64143 22.6529 8.66545 22.6482C6.95507 22.6397 5.1855 22.6304 3.44952 22.6482H3.44233L3.43513 22.6474C2.53994 22.5002 1.93115 22.1501 1.62395 21.6055C1.22476 20.8975 1.32636 19.8819 1.93435 18.4999C3.19113 15.646 6.05829 13.6659 9.24064 13.4544C13.2918 13.1856 16.7981 15.2997 18.1749 18.8399C18.4869 19.6433 18.7957 20.6689 18.4093 21.4777V21.4785Z" fill="black"/>
<path d="M10.5116 0.018592C10.3748 0.00619735 10.1836 0 9.98998 0C9.79638 0 9.60119 0.00619735 9.45719 0.018592C7.77961 0.161131 6.30603 1.07059 5.41564 2.51535C4.51566 3.97482 4.38286 5.75656 5.06045 7.28188C5.91804 9.21236 7.80521 10.4115 9.98518 10.4115C12.1643 10.4115 14.0515 9.21236 14.9091 7.28188C15.5851 5.76121 15.4563 3.98644 14.5651 2.53394C13.6771 1.08608 12.1995 0.169652 10.5124 0.018592H10.5116ZM13.4467 7.11146C12.8123 8.22853 11.63 8.95362 10.286 9.05045C10.1836 9.0582 10.0812 9.0613 9.97958 9.0613C8.7404 9.0613 7.58361 8.51825 6.84042 7.57471C5.95004 6.44369 5.77164 4.98267 6.36523 3.66728C6.94842 2.37358 8.15 1.52145 9.57958 1.38743C11.0788 1.24644 12.4659 1.88787 13.2915 3.10255C14.1219 4.3242 14.1803 5.82241 13.4475 7.11223L13.4467 7.11146Z" fill="black"/>
</svg>
