<svg width="20" height="24" viewBox="0 0 20 24" fill="none" xmlns="http://www.w3.org/2000/svg">
<path d="M19.7645 19.5267C19.7038 18.7701 19.6414 17.9874 19.5946 17.2239C19.5265 16.1132 19.4633 14.9834 19.4026 13.8904C19.2705 11.5245 19.1343 9.07847 18.9406 6.6748L18.9365 6.62015C18.911 6.30228 18.8766 5.86588 18.696 5.47104C18.6402 5.3502 18.527 5.21089 18.138 5.20935H14.8144V5.19319C14.8176 4.75063 14.8209 4.29268 14.7487 3.84473C14.5148 2.39006 13.5317 1.13012 12.1185 0.474362C10.6939 -0.186782 9.08212 -0.155226 7.69604 0.559025C5.97678 1.44568 5.04123 3.17974 5.18239 5.20935H1.87352C1.63471 5.21474 1.43776 5.30556 1.30399 5.47181C1.11852 5.70194 1.09144 6.16605 1.07174 6.50547C1.06846 6.56781 1.06518 6.62554 1.06108 6.67557C0.867402 9.07924 0.730352 11.526 0.598228 13.8927C0.5375 14.9849 0.474312 16.1148 0.406198 17.2246C0.359421 17.9889 0.297051 18.7717 0.236323 19.5282C0.140307 20.7305 0.0410086 21.9735 0.000796752 23.1849C-0.0156163 23.6867 0.22155 23.9607 0.712299 24H19.2385C19.4765 23.9985 19.6636 23.9338 19.7941 23.806C19.9385 23.6652 20.0083 23.4558 19.9992 23.1849C19.9598 21.9735 19.8605 20.7297 19.7637 19.5275L19.7645 19.5267ZM6.55861 5.20935V4.31654C6.55861 3.5869 6.93365 2.83185 7.58853 2.24614C8.22536 1.67581 9.04108 1.32869 9.82562 1.29252C10.7349 1.25096 11.7098 1.61193 12.432 2.25691C13.0836 2.83878 13.4422 3.57073 13.4422 4.31654V5.20935H6.55861ZM5.18813 6.49777V9.09386C5.18813 9.17699 5.34405 9.40943 5.38098 9.45176C5.49505 9.58183 5.6559 9.66034 5.83234 9.67419C6.01945 9.68804 6.20902 9.62724 6.35509 9.50717C6.35673 9.50563 6.55861 9.29936 6.55861 9.23625V6.49854H13.4422V9.23625C13.4422 9.29244 13.4652 9.3771 13.5735 9.46407C13.7557 9.61031 14.0881 9.69035 14.2629 9.66342C14.4943 9.62878 14.8127 9.29859 14.8127 9.09386V6.49777H17.5734L18.5705 22.7093H1.42955L2.42664 6.49777H5.18731H5.18813Z" fill="black"/>
</svg>
