<svg width="24" height="24" viewBox="0 0 24 24" fill="none" xmlns="http://www.w3.org/2000/svg">
<path d="M23.9824 23.424C24.0431 23.2118 23.9926 22.9895 23.851 22.7975L16.279 15.2994V15.2691C16.2386 15.1478 16.3396 15.0063 16.5823 14.7537C16.6328 14.7032 16.6733 14.6526 16.6935 14.6223C18.6446 11.9848 19.0793 8.61979 17.846 5.62863C16.6227 2.65768 13.974 0.586105 10.739 0.101053C10.6379 0.0808421 10.5368 0.0808421 10.4256 0.0707368C10.2537 0.0606316 10.0819 0.0404211 9.90999 0H8.6463L8.51488 0.0505263C5.34049 0.272842 2.55026 2.09179 1.05405 4.91116C-0.401719 7.66989 -0.351172 10.9339 1.2158 13.6219C2.54015 15.9158 4.81479 17.5225 7.45338 18.048C10.1122 18.5836 12.8519 17.9368 14.985 16.3099L15.076 16.2392L22.6682 23.7474L23.0726 23.9899H23.4466C23.7196 23.8787 23.9117 23.6665 23.9824 23.424ZM11.4163 16.4413C10.6985 16.6434 9.97065 16.7343 9.25287 16.7343C7.01867 16.7343 4.87545 15.7945 3.34891 14.0564C1.48876 11.9343 1.0035 8.95326 2.08522 6.26526C3.18716 3.56716 5.62355 1.73811 8.46433 1.50568C11.022 1.29347 13.4483 2.22316 15.1164 4.05221C16.6935 5.79032 17.3506 8.14484 16.926 10.4994C16.3902 13.4198 14.338 15.6429 11.4264 16.4413H11.4163Z" fill="black"/>
</svg>
