<svg width="581" height="581" viewBox="0 0 581 581" fill="none" xmlns="http://www.w3.org/2000/svg">
<path d="M50 290.5C50 157.676 157.676 50 290.5 50C423.324 50 531 157.676 531 290.5C531 423.324 423.324 531 290.5 531C157.676 531 50 423.324 50 290.5Z" stroke="#EDFF89" stroke-width="100"/>
<path d="M92.2208 181.242C91.253 182.931 90.0989 184.114 88.7586 184.791C87.4084 185.431 86.2242 185.459 85.2061 184.876C84.674 184.571 84.3602 184.207 84.2647 183.783C84.1693 183.36 84.2409 182.94 84.4795 182.523C84.7844 181.991 85.1966 181.674 85.716 181.572C86.9423 182.275 88.0269 182.527 88.9698 182.33C89.9127 182.133 90.7023 181.479 91.3387 180.368C91.922 179.35 92.1248 178.406 91.9472 177.536C91.7696 176.666 91.218 175.965 90.2925 175.435C89.5753 175.024 88.8908 174.878 88.239 174.996C87.5873 175.114 86.9503 175.395 86.3279 175.837C85.7056 176.28 85.0683 176.775 84.4161 177.324C83.7142 177.905 82.9727 178.448 82.1915 178.953C81.4103 179.459 80.5979 179.777 79.7543 179.908C78.8876 180.026 78.0146 179.833 77.1354 179.33C75.8628 178.6 75.1248 177.501 74.9214 176.033C74.7181 174.564 75.1069 172.973 76.0879 171.261C76.6447 170.289 77.2757 169.483 77.981 168.842C78.6863 168.201 79.4028 167.782 80.1307 167.584C80.8355 167.374 81.4771 167.434 82.0555 167.765C82.4952 168.017 82.7627 168.355 82.8581 168.778C82.9304 169.189 82.8472 169.602 82.6086 170.018C82.3965 170.389 82.0704 170.663 81.6303 170.841C80.6816 170.297 79.8003 170.146 78.9864 170.386C78.1724 170.627 77.5003 171.21 76.97 172.135C76.4795 172.991 76.2967 173.793 76.4215 174.541C76.5463 175.289 76.9674 175.868 77.6847 176.279C78.2862 176.624 78.8765 176.747 79.4554 176.648C80.0245 176.513 80.5954 176.241 81.1681 175.831C81.7408 175.422 82.3333 174.978 82.9458 174.499C83.7106 173.861 84.515 173.262 85.3591 172.701C86.2164 172.116 87.1099 171.737 88.0396 171.563C88.9461 171.375 89.9083 171.573 90.9264 172.156C91.9213 172.726 92.6365 173.49 93.072 174.446C93.4844 175.389 93.6271 176.454 93.5 177.642C93.3498 178.816 92.9234 180.016 92.2208 181.242ZM103.648 162.981C102.76 164.214 101.674 164.878 100.39 164.972C99.0847 165.051 97.5556 164.459 95.8029 163.196L87.3641 157.118L88.2016 156.982L86.3951 158.737C86.2644 158.873 86.0813 158.922 85.8458 158.884C85.5888 158.83 85.2763 158.671 84.9084 158.406C85.3925 157.505 85.7609 156.834 86.0138 156.392C86.2606 155.912 86.4775 155.543 86.6645 155.283C87.0853 154.699 87.5377 154.367 88.0216 154.289C88.5211 154.188 89.0737 154.356 89.6796 154.793L97.6316 160.52C98.8001 161.362 99.8293 161.758 100.719 161.709C101.603 161.623 102.372 161.125 103.027 160.216C103.448 159.632 103.74 159.021 103.904 158.383C104.083 157.723 104.15 157.082 104.106 156.459C104.056 155.798 103.927 155.179 103.719 154.602L104.107 155.226L93.98 147.933L94.8175 147.796L92.9877 149.584C92.857 149.72 92.6739 149.769 92.4384 149.731C92.1969 149.655 91.8922 149.485 91.5244 149.22C92.0084 148.32 92.3769 147.649 92.6297 147.207C92.8765 146.727 93.0856 146.368 93.2571 146.13C93.6935 145.524 94.1536 145.182 94.6375 145.103C95.1214 145.025 95.6663 145.204 96.2722 145.64L106.626 153.097C106.994 153.362 107.33 153.489 107.634 153.478C107.953 153.445 108.214 153.288 108.417 153.007C108.588 152.769 108.713 152.481 108.792 152.143C108.865 151.769 108.893 151.411 108.875 151.07L109.939 151.441C110.085 152.105 110.082 152.793 109.931 153.506C109.779 154.218 109.524 154.823 109.165 155.321C108.682 155.992 108.084 156.366 107.371 156.444C106.636 156.506 105.857 156.241 105.035 155.649L104.918 155.811C105.568 158.514 105.144 160.904 103.648 162.981ZM115.012 146.646C114.398 146.054 114.201 145.567 114.421 145.186L115.457 143.017L115.555 143.723L104.965 133.499L105.73 133.57L103.774 134.963C103.439 135.195 102.964 135.015 102.35 134.422C102.939 133.582 103.39 132.961 103.703 132.559C104.016 132.12 104.293 131.776 104.534 131.526C105.015 131.028 105.483 130.793 105.936 130.823C106.389 130.853 106.894 131.136 107.45 131.673L108.515 132.701L108.317 132.733L108.567 132.474C108.389 130.893 108.503 129.373 108.912 127.913C109.338 126.435 109.977 125.254 110.829 124.372C111.867 123.297 113.019 122.872 114.286 123.095C115.554 123.317 116.965 124.179 118.519 125.679L126.058 132.958L125.322 132.915L127.672 131.402C127.96 131.68 128.143 131.931 128.222 132.156C128.301 132.344 128.315 132.598 128.264 132.919L123.402 137.955C122.788 137.363 122.591 136.876 122.811 136.495L123.768 134.639L123.866 135.345L116.326 128.066C114.292 126.103 112.581 125.84 111.192 127.279C110.673 127.816 110.27 128.465 109.981 129.224C109.674 129.965 109.49 130.751 109.429 131.582C109.367 132.375 109.409 133.138 109.554 133.871L109.229 133.113L117.863 141.448L117.126 141.404L119.476 139.892C119.764 140.169 119.947 140.421 120.027 140.646C120.105 140.833 120.11 141.097 120.041 141.438L115.012 146.646ZM131.598 129.466C130.984 128.873 130.787 128.387 131.007 128.006L131.964 126.15L132.061 126.855L124.522 119.576C122.488 117.613 120.777 117.351 119.388 118.79C118.628 119.576 118.118 120.585 117.857 121.815C117.595 123.008 117.568 124.168 117.776 125.296L116.291 124.474L116.708 124.042C116.548 122.442 116.671 120.912 117.08 119.453C117.506 117.974 118.145 116.794 118.997 115.911C120.053 114.818 121.215 114.382 122.482 114.605C123.75 114.828 125.16 115.69 126.714 117.19L134.139 124.358L133.432 124.342L136.034 122.74C136.322 123.018 136.506 123.269 136.585 123.494C136.664 123.682 136.678 123.936 136.627 124.257L131.598 129.466ZM141.882 119.035C141.376 118.348 141.264 117.835 141.544 117.496L142.93 115.532L142.908 116.244L134.183 104.389L134.925 104.587L132.764 105.632C132.394 105.804 131.956 105.547 131.451 104.86C132.172 104.13 132.721 103.594 133.097 103.251C133.479 102.87 133.81 102.577 134.089 102.372C134.648 101.961 135.148 101.808 135.59 101.913C136.031 102.019 136.481 102.383 136.94 103.006L137.817 104.198L137.617 104.196L137.907 103.982C137.996 102.394 138.364 100.914 139.011 99.5442C139.68 98.1582 140.508 97.1017 141.496 96.3747C142.699 95.4895 143.906 95.2632 145.118 95.6955C146.331 96.1279 147.577 97.2139 148.857 98.9536L155.069 107.394L154.35 107.228L156.92 106.131C157.157 106.453 157.296 106.732 157.337 106.967C157.383 107.165 157.354 107.418 157.25 107.726L151.612 111.875C151.106 111.188 150.993 110.675 151.274 110.336L152.529 108.667L152.506 109.379L146.295 100.938C144.619 98.6618 142.976 98.1162 141.366 99.3016C140.764 99.7441 140.258 100.316 139.846 101.016C139.418 101.695 139.105 102.439 138.906 103.247C138.712 104.019 138.625 104.778 138.645 105.525L138.452 104.723L145.565 114.388L144.846 114.222L147.416 113.125C147.653 113.447 147.792 113.726 147.833 113.961C147.879 114.159 147.839 114.42 147.713 114.744L141.882 119.035ZM161.116 104.881C160.61 104.194 160.497 103.681 160.778 103.342L162.033 101.673L162.01 102.385L155.799 93.9445C154.123 91.6679 152.48 91.1222 150.869 92.3077C149.989 92.9557 149.317 93.8643 148.853 95.0334C148.394 96.1653 148.173 97.3047 148.19 98.4516L146.863 97.3915L147.346 97.0358C147.457 95.4314 147.836 93.9442 148.483 92.574C149.152 91.188 149.98 90.1315 150.968 89.4044C152.192 88.5035 153.41 88.2692 154.622 88.7016C155.834 89.134 157.081 90.22 158.361 91.9597L164.478 100.272L163.783 100.137L166.617 98.995C166.854 99.3172 166.993 99.5958 167.034 99.8308C167.08 100.029 167.051 100.282 166.947 100.59L161.116 104.881ZM180.15 92.9035C178.722 93.6826 177.297 94.0498 175.876 94.0053C174.465 93.9245 173.154 93.4702 171.943 92.6424C170.732 91.8147 169.717 90.6517 168.9 89.1535C167.968 87.4446 167.482 85.7197 167.444 83.9788C167.429 82.2251 167.801 80.6247 168.561 79.1774C169.32 77.7301 170.403 76.6234 171.807 75.8571C173.024 75.193 174.231 74.8992 175.427 74.9757C176.634 75.016 177.763 75.3873 178.814 76.0896C179.866 76.7918 180.743 77.7867 181.445 79.0742C181.688 79.519 181.772 79.868 181.697 80.1213C181.61 80.3511 181.461 80.5235 181.251 80.6385L170.19 86.6729L169.596 85.5844L179.013 80.1279L178.837 80.7248C178.271 79.5756 177.6 78.6808 176.826 78.0402C176.074 77.3869 175.285 76.9975 174.457 76.872C173.64 76.7104 172.845 76.8403 172.072 77.2617C170.785 77.9641 170.057 79.1358 169.889 80.7767C169.721 82.4175 170.231 84.3265 171.419 86.5036C172.185 87.9082 173.054 89.0286 174.027 89.8649C175.01 90.6651 176.06 91.1406 177.175 91.2917C178.29 91.4427 179.409 91.2117 180.533 90.5986C181.469 90.0878 182.243 89.362 182.854 88.4213C183.452 87.4571 183.854 86.3568 184.06 85.1203L184.996 85.7491C184.887 86.7196 184.617 87.672 184.185 88.6063C183.74 89.5172 183.173 90.343 182.484 91.0837C181.818 91.8116 181.04 92.4182 180.15 92.9035ZM193.655 85.1411C193.341 84.4051 193.349 83.8798 193.679 83.5654L195.479 81.9727L195.34 82.7707L189.525 69.1178L190.201 69.4817L187.858 70.0018C187.665 70.0259 187.478 69.9607 187.296 69.8062C187.104 69.6272 186.924 69.3414 186.757 68.9489C187.651 68.3941 188.321 67.9929 188.766 67.7453C189.201 67.4731 189.578 67.2691 189.897 67.1333C190.486 66.8825 191 66.8661 191.441 67.0841C191.871 67.2777 192.248 67.7547 192.572 68.5153L193.231 70.0609L192.916 69.9341L193.284 69.7774C193.455 68.3421 193.868 67.065 194.521 65.9459C195.2 64.8164 195.98 64.0636 196.864 63.6873C197.796 63.2902 198.547 63.2166 199.117 63.4665C199.677 63.6918 200.088 64.1111 200.349 64.7245C200.547 65.1906 200.573 65.6581 200.425 66.127C200.301 66.5854 200.018 66.9087 199.577 67.0968C198.962 66.6052 198.423 66.3274 197.961 66.2634C197.499 66.1993 197.047 66.2614 196.605 66.4495C195.918 66.7421 195.325 67.3571 194.826 68.2944C194.327 69.2317 193.953 70.2603 193.706 71.3802L193.666 70.5713L198.306 81.4642L197.508 81.0213L201.008 80.3567C201.164 80.7247 201.236 81.0277 201.221 81.2658C201.231 81.4934 201.138 81.7506 200.941 82.0372L193.655 85.1411ZM233.115 71.4981C231.512 71.9029 230.015 71.9096 228.623 71.5184C227.258 71.1206 226.092 70.3699 225.126 69.2662C224.159 68.1625 223.457 66.7445 223.02 65.0122C222.53 63.0731 222.474 61.272 222.852 59.6089C223.249 57.9135 224.015 56.4823 225.151 55.3155C226.28 54.1228 227.698 53.311 229.404 52.8801C230.568 52.5863 231.677 52.5125 232.731 52.6588C233.779 52.7792 234.656 53.094 235.362 53.6033C236.095 54.1061 236.558 54.7453 236.754 55.5209C236.885 56.038 236.834 56.4909 236.602 56.8795C236.39 57.2357 236.025 57.4791 235.508 57.6097C235.275 57.6684 235.049 57.6981 234.829 57.6986C234.602 57.6733 234.373 57.635 234.14 57.5838C233.794 56.2135 233.206 55.248 232.377 54.6872C231.574 54.12 230.564 53.9898 229.349 54.2966C227.694 54.7144 226.594 55.6937 226.048 57.2342C225.495 58.749 225.526 60.7215 226.14 63.1519C226.779 65.6857 227.744 67.4911 229.034 68.5682C230.343 69.6129 231.954 69.8936 233.867 69.4105C234.901 69.1494 235.844 68.6912 236.697 68.0359C237.568 67.3483 238.303 66.5025 238.902 65.4986L239.642 66.3021C239.268 67.1115 238.746 67.8759 238.075 68.5954C237.424 69.2825 236.665 69.8728 235.8 70.3664C234.967 70.8793 234.072 71.2565 233.115 71.4981ZM255.174 66.8844C252.719 67.2327 250.67 66.7424 249.027 65.4133C247.384 64.0843 246.381 62.1392 246.017 59.5782C245.736 57.5981 245.895 55.771 246.492 54.0972C247.116 52.4196 248.09 51.0289 249.415 49.9252C250.74 48.8215 252.34 48.1367 254.214 47.8708C255.851 47.6385 257.314 47.7945 258.603 48.3388C259.889 48.8567 260.952 49.7025 261.791 50.8762C262.631 52.0498 263.173 53.4947 263.416 55.2109C263.701 57.2175 263.545 59.0577 262.947 60.7315C262.346 62.379 261.37 63.7564 260.019 64.8639C258.69 65.9412 257.075 66.6147 255.174 66.8844ZM255.736 65.4311C257.505 65.1801 258.763 64.2743 259.512 62.7138C260.286 61.1495 260.492 59.0868 260.129 56.5258C259.765 53.9647 259.037 52.0615 257.945 50.8159C256.852 49.5703 255.448 49.0693 253.732 49.3128C251.963 49.5638 250.691 50.4714 249.917 52.0357C249.138 53.5736 248.934 55.6495 249.305 58.2633C249.669 60.8244 250.397 62.7276 251.489 63.9732C252.604 65.1886 254.02 65.6746 255.736 65.4311ZM272.274 64.074C272.251 63.6212 272.287 63.2856 272.383 63.0672C272.479 62.8487 272.631 62.6942 272.84 62.6036L275.199 61.7236L274.788 62.3051L273.476 36.2981L273.986 36.8732L271.487 36.5587C271.083 36.4989 270.86 36.0429 270.817 35.1907C271.689 35.0132 272.429 34.869 273.038 34.7583C273.646 34.6475 274.23 34.578 274.79 34.5497C276.015 34.488 276.666 35.2294 276.744 36.7741L278.02 62.062L277.514 61.5668L280.788 62.1626C280.808 62.5621 280.771 62.8711 280.675 63.0895C280.604 63.28 280.427 63.4758 280.144 63.677L272.274 64.074ZM288.737 63.3306C288.746 62.8774 288.806 62.5452 288.917 62.3341C289.028 62.123 289.191 61.9797 289.406 61.9041L291.821 61.1937L291.37 61.7445L291.906 35.71L292.374 36.3198L289.904 35.8288C289.505 35.7406 289.315 35.2699 289.333 34.4167C290.215 34.3016 290.964 34.2103 291.579 34.143C292.193 34.0756 292.781 34.0477 293.341 34.0592C294.567 34.0845 295.164 34.8703 295.133 36.4167L294.611 61.7313L294.142 61.2015L297.365 62.0281C297.357 62.428 297.297 62.7335 297.186 62.9446C297.103 63.1296 296.912 63.3124 296.615 63.4929L288.737 63.3306ZM312.722 65.0703C311.104 64.8972 309.724 64.3875 308.581 63.541C307.467 62.6709 306.648 61.5507 306.124 60.1806C305.601 58.8104 305.429 57.2768 305.611 55.5798C305.818 53.6442 306.402 51.95 307.362 50.4972C308.348 49.0473 309.566 47.944 311.015 47.1872C312.464 46.4304 313.983 46.1371 315.574 46.3074C316.953 46.4549 318.112 46.9008 319.052 47.645C320.021 48.3655 320.737 49.3138 321.201 50.4899C321.665 51.6659 321.819 52.9831 321.663 54.4415C321.609 54.9453 321.48 55.28 321.274 55.4458C321.072 55.585 320.851 55.6419 320.612 55.6163L308.084 54.2755L308.216 53.0426L319.064 53.9219L318.58 54.3126C318.769 53.0455 318.727 51.9281 318.456 50.9604C318.21 49.9954 317.783 49.2256 317.174 48.6509C316.594 48.0525 315.867 47.7065 314.992 47.6128C313.534 47.4567 312.268 48.0052 311.195 49.2582C310.123 50.5111 309.454 52.3706 309.191 54.8365C309.02 56.4274 309.097 57.8436 309.42 59.085C309.772 60.3027 310.364 61.2913 311.194 62.0507C312.025 62.81 313.076 63.2578 314.349 63.394C315.41 63.5075 316.459 63.3516 317.497 62.9263C318.537 62.4745 319.495 61.7992 320.369 60.9004L320.779 61.95C320.137 62.6859 319.373 63.3148 318.486 63.8367C317.601 64.332 316.665 64.6877 315.676 64.9038C314.714 65.1226 313.729 65.1782 312.722 65.0703ZM335.527 68.4161C333.909 68.0754 332.561 67.4235 331.483 66.4607C330.431 65.5033 329.713 64.3166 329.33 62.9006C328.947 61.4845 328.94 59.9024 329.308 58.1541C329.72 56.197 330.462 54.5545 331.532 53.2265C332.633 51.878 333.95 50.9291 335.483 50.3799C337.022 49.8046 338.652 49.6984 340.374 50.0611C341.548 50.3085 342.577 50.7295 343.46 51.3243C344.348 51.893 344.998 52.5612 345.408 53.329C345.845 54.1023 345.981 54.8803 345.816 55.6631C345.706 56.185 345.462 56.5696 345.083 56.8167C344.735 57.0433 344.3 57.1016 343.779 56.9917C343.544 56.9422 343.327 56.8694 343.13 56.7733C342.937 56.651 342.748 56.5157 342.561 56.3673C342.852 54.9844 342.749 53.8588 342.25 52.9908C341.778 52.1283 340.929 51.5678 339.702 51.3095C338.032 50.9577 336.613 51.3538 335.446 52.4977C334.284 53.6155 333.445 55.4009 332.928 57.8537C332.389 60.4109 332.462 62.4566 333.148 63.9908C333.864 65.5043 335.188 66.4645 337.119 66.8712C338.163 67.0911 339.212 67.0939 340.265 66.8798C341.35 66.6451 342.382 66.2084 343.361 65.5699L343.672 66.6165C342.982 67.1795 342.177 67.6368 341.258 67.9883C340.371 68.3192 339.43 68.5161 338.435 68.5792C337.462 68.6739 336.492 68.6195 335.527 68.4161ZM355.892 73.3582C354.669 72.9818 353.869 72.3172 353.492 71.3644C353.142 70.4194 353.205 69.1696 353.683 67.6148L358.717 51.2516C359.009 51.1182 359.345 51.0261 359.723 50.9751C360.135 50.9064 360.551 50.8672 360.973 50.8574C361.42 50.8554 361.826 50.8965 362.19 50.9808L356.921 68.1087C356.616 69.1027 356.532 69.8722 356.672 70.4173C356.844 70.9447 357.3 71.322 358.039 71.5494C358.625 71.7298 359.289 71.7944 360.03 71.7434C360.797 71.7002 361.585 71.4963 362.394 71.1316L362.636 72.252C362.271 72.5304 361.712 72.805 360.959 73.0756C360.232 73.354 359.422 73.5374 358.53 73.6256C357.638 73.7139 356.759 73.6248 355.892 73.3582ZM364.973 59.0768L354.518 55.6514C354.628 55.2945 354.764 54.9877 354.927 54.7308C355.123 54.4563 355.33 54.2828 355.547 54.2103L366.381 57.0829C366.393 57.226 366.392 57.3652 366.379 57.5005C366.373 57.6103 366.35 57.7289 366.311 57.8563C366.185 58.2641 366.003 58.5847 365.764 58.818C365.533 59.0258 365.269 59.1121 364.973 59.0768ZM367.82 76.646C368.133 75.8519 368.507 75.4834 368.943 75.5404L371.455 75.7122L370.84 76.0722L376.29 62.226L376.517 62.9601L374.37 61.6424C374.017 61.4463 374.002 60.9388 374.324 60.1199C375.217 60.3279 375.946 60.5145 376.511 60.6798C377.111 60.83 377.684 61.0125 378.23 61.2274C379.372 61.6766 379.664 62.6084 379.107 64.0228L373.921 77.199L373.665 76.5393L376.365 78.4185C376.218 78.7907 376.056 79.0565 375.879 79.216C375.736 79.3604 375.494 79.4657 375.153 79.532L367.82 76.646ZM379.718 57.5571C379.122 57.3227 378.727 56.9808 378.531 56.5312C378.345 56.0569 378.36 55.5467 378.575 55.0008C378.789 54.4549 379.151 54.0815 379.66 53.8806C380.194 53.6895 380.697 53.6867 381.168 53.8723C381.764 54.1067 382.154 54.4611 382.34 54.9354C382.561 55.3947 382.559 55.9097 382.334 56.4805C382.129 57.0015 381.759 57.3577 381.226 57.5488C380.717 57.7497 380.214 57.7525 379.718 57.5571ZM389.644 86.6227C387.429 85.5063 386.027 83.9335 385.437 81.9041C384.848 79.8748 385.135 77.7053 386.3 75.3955C387.2 73.6096 388.373 72.2003 389.82 71.1675C391.29 70.1468 392.884 69.5617 394.602 69.4123C396.32 69.263 398.024 69.6144 399.715 70.4667C401.191 71.211 402.303 72.1747 403.05 73.3578C403.81 74.5171 404.199 75.8183 404.218 77.2614C404.237 78.7045 403.856 80.1999 403.076 81.7477C402.164 83.5574 400.984 84.9786 399.538 86.0114C398.104 87.0203 396.516 87.5935 394.774 87.7309C393.068 87.8564 391.358 87.487 389.644 86.6227ZM390.934 85.7504C392.53 86.5547 394.08 86.53 395.586 85.6763C397.115 84.8347 398.462 83.259 399.626 80.9492C400.791 78.6394 401.28 76.6614 401.095 75.015C400.91 73.3686 400.043 72.1553 398.495 71.375C396.9 70.5707 395.337 70.5894 393.808 71.4311C392.291 72.249 390.938 73.8366 389.75 76.194C388.585 78.5037 388.096 80.4818 388.281 82.1282C388.502 83.7627 389.387 84.9702 390.934 85.7504ZM405.255 94.1179C405.724 93.4055 406.167 93.1222 406.582 93.268L408.903 93.8884L408.162 94.214L416.33 81.8244L416.401 82.5895L414.673 80.9231C414.383 80.6362 414.473 80.1365 414.942 79.424C415.876 79.8482 416.57 80.1775 417.022 80.4119C417.511 80.6387 417.901 80.8475 418.19 81.0383C418.769 81.4199 419.085 81.8362 419.139 82.287C419.193 82.7379 419.008 83.2862 418.582 83.9318L417.767 85.1675L417.633 84.9352L418 85.1774C419.566 84.7404 421.115 84.5956 422.647 84.7431C424.201 84.9053 425.523 85.3459 426.614 86.0652C429.197 87.7679 429.306 90.4114 426.943 93.9958L421.263 102.612L421.148 101.913L423.201 104.177C422.981 104.511 422.779 104.745 422.594 104.879C422.425 104.991 422.177 105.051 421.852 105.061L415.807 101.075C416.277 100.363 416.719 100.08 417.134 100.225L419.101 100.803L418.393 101.151L424.227 92.3012C425.783 89.9413 425.671 88.1742 423.89 86.9999C423.222 86.5596 422.466 86.2528 421.622 86.0796C420.815 85.8989 419.986 85.8476 419.136 85.9259C418.3 85.982 417.525 86.1413 416.809 86.4038L417.494 85.9454L410.889 95.964L410.796 95.2322L412.715 97.2637C412.495 97.5977 412.281 97.8244 412.075 97.9438C411.905 98.0556 411.647 98.1087 411.299 98.1031L405.255 94.1179ZM443.425 122.845C442.001 121.517 441.112 120.124 440.759 118.665C440.444 117.204 440.686 116.045 441.486 115.186C441.904 114.738 442.33 114.515 442.764 114.519C443.199 114.522 443.591 114.688 443.942 115.015C444.391 115.433 444.606 115.907 444.586 116.436C443.623 117.47 443.129 118.468 443.107 119.431C443.084 120.394 443.541 121.312 444.477 122.185C445.335 122.985 446.208 123.398 447.096 123.423C447.983 123.449 448.791 123.071 449.518 122.291C450.082 121.686 450.381 121.053 450.414 120.392C450.447 119.73 450.32 119.046 450.031 118.339C449.742 117.632 449.405 116.899 449.019 116.139C448.613 115.323 448.254 114.477 447.94 113.601C447.626 112.726 447.501 111.862 447.566 111.011C447.648 110.14 448.035 109.334 448.726 108.593C449.726 107.52 450.965 107.052 452.441 107.189C453.918 107.326 455.378 108.067 456.821 109.412C457.64 110.176 458.281 110.974 458.745 111.807C459.208 112.64 459.453 113.433 459.479 114.187C459.524 114.921 459.319 115.532 458.864 116.02C458.519 116.39 458.129 116.574 457.695 116.57C457.279 116.547 456.895 116.372 456.544 116.045C456.232 115.754 456.04 115.374 455.967 114.905C456.712 114.105 457.061 113.281 457.012 112.434C456.963 111.587 456.549 110.799 455.769 110.072C455.047 109.399 454.308 109.038 453.551 108.989C452.795 108.94 452.135 109.218 451.571 109.823C451.099 110.33 450.844 110.877 450.808 111.463C450.81 112.048 450.945 112.666 451.213 113.317C451.481 113.968 451.778 114.646 452.105 115.351C452.551 116.241 452.951 117.161 453.306 118.111C453.679 119.079 453.845 120.036 453.802 120.98C453.778 121.906 453.366 122.798 452.566 123.656C451.784 124.495 450.878 125.017 449.848 125.223C448.835 125.409 447.766 125.305 446.639 124.911C445.53 124.497 444.458 123.808 443.425 122.845ZM458.582 138.129C457.585 136.982 457.188 135.773 457.39 134.502C457.613 133.213 458.539 131.86 460.169 130.443L468.019 123.621L467.96 124.468L466.665 122.307C466.563 122.149 466.557 121.959 466.648 121.739C466.76 121.501 466.986 121.233 467.328 120.936C468.094 121.613 468.663 122.126 469.035 122.473C469.446 122.823 469.756 123.119 469.966 123.361C470.438 123.904 470.657 124.42 470.623 124.909C470.606 125.419 470.316 125.918 469.752 126.408L462.355 132.836C461.268 133.781 460.647 134.692 460.491 135.57C460.372 136.45 460.681 137.312 461.415 138.158C461.888 138.701 462.416 139.126 462.999 139.431C463.6 139.757 464.209 139.97 464.826 140.069C465.48 140.172 466.112 140.188 466.722 140.117L466.025 140.352L475.445 132.166L475.386 133.012L474.065 130.821C473.962 130.663 473.957 130.473 474.048 130.253C474.176 130.035 474.412 129.778 474.754 129.48C475.519 130.158 476.088 130.67 476.461 131.017C476.871 131.368 477.172 131.653 477.365 131.875C477.855 132.438 478.082 132.965 478.048 133.454C478.014 133.943 477.715 134.432 477.151 134.922L467.52 143.292C467.178 143.589 466.978 143.887 466.919 144.186C466.878 144.504 466.971 144.794 467.198 145.056C467.391 145.277 467.642 145.465 467.953 145.619C468.301 145.776 468.643 145.885 468.979 145.946L468.374 146.896C467.694 146.886 467.025 146.726 466.366 146.415C465.707 146.104 465.177 145.718 464.774 145.255C464.232 144.631 464.005 143.963 464.092 143.25C464.2 142.521 464.637 141.824 465.401 141.159L465.27 141.008C462.491 141.021 460.261 140.062 458.582 138.129ZM471.879 152.934C472.597 152.472 473.116 152.391 473.437 152.692L475.31 154.198L474.601 154.132L486.979 146.166L486.734 146.894L485.827 144.671C485.678 144.292 485.962 143.871 486.68 143.409C487.363 144.175 487.864 144.756 488.183 145.153C488.539 145.559 488.81 145.907 488.998 146.199C489.373 146.782 489.494 147.29 489.361 147.724C489.229 148.159 488.837 148.585 488.187 149.004L486.942 149.805L486.957 149.605L487.151 149.908C488.731 150.096 490.185 150.556 491.512 151.288C492.853 152.042 493.856 152.935 494.52 153.966C495.328 155.222 495.478 156.441 494.971 157.624C494.463 158.806 493.301 159.982 491.485 161.151L482.672 166.822L482.883 166.116L483.817 168.749C483.481 168.966 483.194 169.087 482.957 169.113C482.757 169.146 482.506 169.102 482.205 168.978L478.416 163.092C479.134 162.63 479.653 162.55 479.974 162.851L481.561 164.208L480.852 164.141L489.664 158.47C492.042 156.94 492.689 155.334 491.607 153.653C491.203 153.025 490.664 152.483 489.991 152.029C489.34 151.559 488.617 151.2 487.822 150.951C487.064 150.709 486.312 150.575 485.565 150.548L486.378 150.406L476.287 156.899L476.498 156.193L477.432 158.826C477.095 159.043 476.808 159.164 476.571 159.19C476.371 159.223 476.113 159.167 475.797 159.022L471.879 152.934ZM484.802 173.015C485.52 172.553 486.039 172.473 486.359 172.774L487.946 174.131L487.237 174.064L496.05 168.393C498.427 166.863 499.074 165.257 497.992 163.575C497.4 162.656 496.536 161.928 495.398 161.392C494.297 160.864 493.174 160.572 492.028 160.516L493.169 159.259L493.494 159.763C495.088 159.974 496.549 160.445 497.876 161.177C499.217 161.931 500.22 162.824 500.884 163.855C501.706 165.134 501.864 166.364 501.356 167.547C500.849 168.729 499.687 169.905 497.871 171.074L489.192 176.659L489.37 175.974L490.332 178.874C489.996 179.091 489.709 179.212 489.472 179.237C489.272 179.271 489.021 179.226 488.72 179.103L484.802 173.015ZM492.591 185.402C493.376 185.068 493.901 185.077 494.166 185.428L495.758 187.228L495.07 187.043L508.617 181.283L508.252 181.96L507.734 179.616C507.651 179.216 508.002 178.85 508.788 178.516C509.331 179.386 509.727 180.043 509.974 180.489C510.257 180.948 510.465 181.338 510.601 181.657C510.872 182.295 510.906 182.817 510.702 183.222C510.497 183.628 510.039 183.982 509.328 184.284L507.966 184.863L508.014 184.669L508.154 185.001C509.68 185.453 511.035 186.152 512.219 187.097C513.414 188.067 514.251 189.117 514.731 190.246C515.315 191.62 515.257 192.847 514.557 193.927C513.858 195.007 512.514 195.969 510.526 196.815L500.881 200.915L501.209 200.254L501.684 203.008C501.316 203.164 501.013 203.235 500.775 203.22C500.572 203.22 500.332 203.133 500.056 202.961L497.317 196.519C498.103 196.185 498.628 196.194 498.893 196.545L500.228 198.15L499.54 197.965L509.185 193.864C511.786 192.758 512.695 191.285 511.913 189.444C511.621 188.757 511.181 188.133 510.595 187.571C510.032 186.998 509.381 186.522 508.64 186.142C507.933 185.776 507.215 185.516 506.483 185.363L507.308 185.361L496.264 190.056L496.592 189.395L497.067 192.148C496.699 192.305 496.396 192.376 496.158 192.361C495.955 192.361 495.71 192.262 495.423 192.065L492.591 185.402ZM501.934 207.378C502.719 207.044 503.245 207.053 503.51 207.404L504.844 209.01L504.157 208.824L513.801 204.723C516.403 203.617 517.312 202.144 516.53 200.304C516.102 199.297 515.373 198.434 514.342 197.713C513.346 197.006 512.288 196.529 511.168 196.281L512.505 195.234L512.74 195.786C514.276 196.263 515.636 196.975 516.82 197.92C518.015 198.89 518.852 199.939 519.332 201.068C519.927 202.467 519.874 203.706 519.174 204.786C518.474 205.866 517.131 206.829 515.143 207.674L505.645 211.712L505.936 211.066L506.395 214.088C506.027 214.244 505.724 214.315 505.486 214.301C505.283 214.3 505.043 214.214 504.767 214.041L501.934 207.378ZM509.187 228.645C508.76 227.075 508.733 225.604 509.106 224.231C509.512 222.877 510.257 221.707 511.343 220.721C512.429 219.735 513.795 219.018 515.442 218.57C517.321 218.059 519.111 217.986 520.814 218.352C522.523 218.744 523.994 219.477 525.225 220.552C526.457 221.626 527.283 222.935 527.703 224.479C528.067 225.817 528.073 227.059 527.721 228.205C527.403 229.369 526.78 230.382 525.853 231.242C524.926 232.102 523.755 232.724 522.34 233.109C521.851 233.242 521.492 233.243 521.263 233.112C521.059 232.974 520.926 232.789 520.863 232.557L517.557 220.399L518.753 220.074L521.879 230.499L521.339 230.19C522.588 229.905 523.614 229.46 524.416 228.855C525.226 228.276 525.788 227.598 526.102 226.821C526.448 226.064 526.506 225.261 526.275 224.411C525.89 222.996 524.919 222.017 523.362 221.473C521.805 220.929 519.829 220.983 517.436 221.634C515.892 222.054 514.601 222.64 513.562 223.392C512.556 224.163 511.85 225.074 511.445 226.124C511.039 227.174 511.005 228.316 511.341 229.551C511.621 230.58 512.147 231.501 512.921 232.313C513.72 233.118 514.697 233.765 515.852 234.252L515.024 235.016C514.105 234.686 513.241 234.202 512.432 233.565C511.649 232.922 510.977 232.179 510.417 231.336C509.863 230.52 509.453 229.622 509.187 228.645ZM513.613 243.592C514.401 243.457 514.91 243.586 515.14 243.979L516.274 246.098L515.53 245.779L530.156 243.272L529.646 243.846L529.681 241.446C529.702 241.253 529.809 241.086 530.001 240.945C530.219 240.799 530.539 240.69 530.96 240.618C531.293 241.616 531.529 242.36 531.667 242.851C531.831 243.337 531.943 243.75 532.001 244.092C532.11 244.723 532.007 245.227 531.693 245.606C531.405 245.98 530.854 246.237 530.039 246.376L528.383 246.66L528.579 246.383L528.647 246.777C530.004 247.275 531.151 247.971 532.089 248.866C533.032 249.787 533.584 250.72 533.746 251.666C533.917 252.665 533.816 253.413 533.441 253.91C533.092 254.403 532.59 254.705 531.933 254.818C531.433 254.903 530.973 254.82 530.55 254.568C530.133 254.342 529.884 253.992 529.803 253.519C530.423 253.034 530.817 252.574 530.986 252.139C531.155 251.704 531.199 251.25 531.118 250.777C530.992 250.041 530.531 249.322 529.734 248.62C528.937 247.918 528.022 247.317 526.99 246.818L527.786 246.966L516.117 248.966L516.732 248.292L516.57 251.851C516.176 251.918 515.865 251.917 515.637 251.848C515.413 251.806 515.184 251.655 514.951 251.398L513.613 243.592ZM517.779 285.139C517.755 283.486 518.094 282.027 518.795 280.764C519.497 279.527 520.497 278.565 521.794 277.88C523.09 277.194 524.632 276.838 526.419 276.812C528.418 276.783 530.184 277.144 531.715 277.895C533.273 278.673 534.489 279.749 535.362 281.123C536.262 282.496 536.725 284.063 536.751 285.823C536.768 287.023 536.584 288.119 536.199 289.111C535.84 290.103 535.331 290.884 534.672 291.454C534.014 292.05 533.285 292.354 532.485 292.366C531.952 292.373 531.523 292.22 531.199 291.904C530.901 291.615 530.748 291.204 530.741 290.671C530.737 290.431 530.761 290.204 530.811 289.99C530.888 289.775 530.978 289.561 531.081 289.346C532.495 289.325 533.57 288.976 534.307 288.299C535.044 287.648 535.403 286.696 535.385 285.443C535.36 283.736 534.661 282.44 533.288 281.553C531.942 280.666 530.016 280.24 527.509 280.277C524.896 280.315 522.917 280.837 521.571 281.843C520.253 282.876 519.608 284.379 519.637 286.352C519.652 287.419 519.88 288.442 520.321 289.422C520.789 290.429 521.443 291.34 522.281 292.154L521.329 292.688C520.628 292.138 520.004 291.454 519.459 290.635C518.941 289.842 518.541 288.968 518.261 288.012C517.954 287.083 517.793 286.125 517.779 285.139ZM517.199 307.703C517.421 305.233 518.366 303.35 520.035 302.054C521.704 300.758 523.827 300.225 526.403 300.456C528.395 300.634 530.138 301.205 531.631 302.169C533.122 303.16 534.253 304.426 535.025 305.967C535.798 307.509 536.099 309.223 535.93 311.109C535.783 312.755 535.297 314.144 534.472 315.275C533.675 316.409 532.609 317.25 531.274 317.8C529.94 318.35 528.409 318.547 526.683 318.392C524.664 318.211 522.909 317.639 521.415 316.675C519.949 315.714 518.83 314.449 518.061 312.881C517.315 311.341 517.028 309.615 517.199 307.703ZM518.486 308.582C518.327 310.361 518.921 311.793 520.27 312.878C521.616 313.989 523.577 314.66 526.153 314.891C528.73 315.122 530.749 314.848 532.211 314.069C533.673 313.289 534.482 312.036 534.636 310.31C534.796 308.531 534.202 307.085 532.856 305.974C531.537 304.865 529.562 304.193 526.933 303.957C524.356 303.726 522.337 304 520.875 304.78C519.437 305.588 518.641 306.855 518.486 308.582ZM516.032 324.996C516.478 325.077 516.796 325.189 516.987 325.332C517.178 325.476 517.294 325.659 517.334 325.883L517.653 328.381L517.181 327.848L542.802 332.5L542.126 332.865L543.002 330.503C543.152 330.124 543.647 330.011 544.487 330.163C544.46 331.053 544.432 331.806 544.401 332.424C544.37 333.042 544.305 333.626 544.205 334.177C543.986 335.384 543.115 335.85 541.593 335.573L516.681 331.05L517.278 330.67L515.952 333.722C515.558 333.651 515.266 333.544 515.075 333.401C514.906 333.289 514.755 333.072 514.624 332.75L516.032 324.996ZM513.005 341.172C513.444 341.285 513.754 341.42 513.933 341.577C514.113 341.733 514.215 341.925 514.24 342.151L514.376 344.665L513.944 344.099L539.159 350.6L538.459 350.915L539.504 348.624C539.681 348.256 540.183 348.179 541.009 348.392C540.919 349.278 540.836 350.027 540.76 350.641C540.684 351.255 540.577 351.833 540.437 352.375C540.13 353.563 539.229 353.964 537.731 353.578L513.213 347.257L513.836 346.922L512.291 349.869C511.904 349.769 511.62 349.641 511.44 349.485C511.279 349.361 511.145 349.133 511.038 348.803L513.005 341.172ZM505.796 364.09C506.339 362.557 507.154 361.332 508.242 360.415C509.346 359.533 510.625 358.995 512.079 358.802C513.533 358.61 515.065 358.798 516.674 359.367C518.509 360.016 520.022 360.976 521.214 362.246C522.396 363.541 523.188 364.98 523.59 366.565C523.991 368.149 523.925 369.696 523.391 371.204C522.929 372.512 522.227 373.536 521.286 374.278C520.361 375.054 519.272 375.532 518.021 375.712C516.769 375.891 515.452 375.736 514.069 375.247C513.592 375.078 513.296 374.875 513.182 374.637C513.094 374.407 513.089 374.179 513.17 373.953L517.371 362.074L518.54 362.488L515.176 372.838L514.908 372.277C516.097 372.754 517.194 372.972 518.198 372.931C519.194 372.916 520.041 372.678 520.741 372.219C521.457 371.793 521.962 371.166 522.256 370.336C522.745 368.953 522.504 367.595 521.533 366.262C520.562 364.928 518.907 363.848 516.569 363.021C515.061 362.488 513.666 362.235 512.383 362.262C511.117 362.323 510.018 362.67 509.087 363.302C508.157 363.935 507.478 364.855 507.051 366.061C506.695 367.067 506.604 368.124 506.778 369.232C506.977 370.349 507.413 371.436 508.085 372.494L506.969 372.651C506.401 371.856 505.966 370.967 505.664 369.983C505.386 369.008 505.257 368.015 505.275 367.003C505.285 366.016 505.458 365.045 505.796 364.09ZM497.268 385.496C497.974 384.001 498.92 382.841 500.106 382.015C501.281 381.213 502.602 380.79 504.068 380.745C505.534 380.701 507.075 381.06 508.691 381.823C510.499 382.677 511.925 383.778 512.969 385.127C514.026 386.511 514.644 388.012 514.824 389.63C515.027 391.26 514.753 392.87 514.001 394.462C513.489 395.547 512.841 396.45 512.058 397.171C511.299 397.904 510.498 398.381 509.656 398.603C508.803 398.849 508.015 398.801 507.291 398.459C506.809 398.231 506.492 397.904 506.339 397.478C506.199 397.088 506.243 396.651 506.471 396.169C506.573 395.952 506.694 395.758 506.834 395.588C506.997 395.43 507.172 395.277 507.36 395.129C508.638 395.733 509.757 395.893 510.717 395.609C511.665 395.349 512.407 394.653 512.942 393.519C513.671 391.976 513.615 390.504 512.772 389.104C511.954 387.714 510.411 386.484 508.145 385.414C505.782 384.298 503.775 383.895 502.124 384.206C500.485 384.553 499.245 385.619 498.402 387.403C497.946 388.368 497.701 389.387 497.665 390.461C497.642 391.571 497.828 392.676 498.222 393.777L497.132 393.837C496.744 393.035 496.486 392.146 496.357 391.171C496.24 390.231 496.267 389.27 496.435 388.288C496.569 387.319 496.846 386.388 497.268 385.496ZM487.745 404.18C488.393 403.077 489.224 402.451 490.238 402.304C491.238 402.181 492.44 402.531 493.842 403.354L508.606 412.023C508.668 412.337 508.681 412.685 508.643 413.065C508.615 413.481 508.557 413.896 508.47 414.308C508.369 414.744 508.235 415.129 508.069 415.465L492.616 406.391C491.719 405.865 490.989 405.606 490.427 405.616C489.874 405.663 489.402 406.019 489.01 406.686C488.7 407.215 488.484 407.846 488.363 408.579C488.228 409.335 488.245 410.149 488.413 411.021L487.267 410.997C487.081 410.578 486.942 409.971 486.852 409.176C486.749 408.404 486.757 407.574 486.877 406.686C486.996 405.797 487.286 404.962 487.745 404.18ZM499.55 416.307L505.292 406.923C505.614 407.112 505.881 407.315 506.093 407.532C506.315 407.786 506.437 408.028 506.457 408.256L501.166 418.137C501.024 418.116 500.888 418.083 500.76 418.038C500.654 418.007 500.544 417.958 500.429 417.89C500.061 417.674 499.791 417.423 499.619 417.136C499.47 416.863 499.447 416.587 499.55 416.307ZM481.798 415.029C482.498 415.516 482.771 415.965 482.615 416.377L481.869 418.781L481.66 418.1L493.878 426.594L493.111 426.645L494.888 424.86C495.16 424.562 495.657 424.664 496.38 425.167C495.972 425.987 495.622 426.654 495.331 427.166C495.047 427.715 494.737 428.231 494.402 428.712C493.702 429.719 492.728 429.789 491.48 428.922L479.854 420.839L480.554 420.742L478.104 422.935C477.775 422.707 477.554 422.488 477.44 422.279C477.332 422.107 477.285 421.847 477.3 421.499L481.798 415.029ZM497.631 431.005C497.996 430.48 498.42 430.174 498.903 430.087C499.407 430.016 499.9 430.147 500.382 430.482C500.864 430.817 501.144 431.255 501.222 431.797C501.285 432.36 501.172 432.85 500.883 433.266C500.517 433.791 500.082 434.09 499.578 434.161C499.08 434.27 498.58 434.149 498.076 433.799C497.616 433.48 497.355 433.038 497.292 432.475C497.214 431.933 497.327 431.443 497.631 431.005ZM467.06 433.97C468.656 432.072 470.51 431.07 472.62 430.963C474.731 430.857 476.776 431.636 478.755 433.301C480.286 434.588 481.387 436.055 482.059 437.7C482.714 439.366 482.917 441.052 482.667 442.758C482.416 444.464 481.682 446.041 480.463 447.49C479.399 448.755 478.205 449.616 476.882 450.071C475.579 450.543 474.223 450.622 472.814 450.308C471.406 449.995 470.038 449.28 468.712 448.164C467.16 446.86 466.049 445.385 465.377 443.74C464.725 442.111 464.533 440.434 464.8 438.708C465.071 437.019 465.824 435.44 467.06 433.97ZM467.612 435.427C466.462 436.795 466.129 438.309 466.613 439.971C467.08 441.653 468.303 443.326 470.283 444.991C472.262 446.656 474.075 447.588 475.719 447.786C477.364 447.985 478.745 447.421 479.86 446.094C481.01 444.727 481.352 443.202 480.885 441.52C480.438 439.856 479.205 438.174 477.184 436.474C475.205 434.809 473.392 433.878 471.747 433.679C470.106 433.518 468.727 434.101 467.612 435.427ZM456.163 447.447C456.749 448.068 456.924 448.563 456.687 448.934L455.55 451.052L455.404 450.255L465.591 461.046L464.83 460.939L466.848 459.639C467.194 459.422 467.66 459.624 468.246 460.245C467.619 461.057 467.14 461.656 466.808 462.043C466.475 462.467 466.182 462.798 465.93 463.036C465.426 463.512 464.948 463.725 464.497 463.674C464.046 463.623 463.555 463.317 463.024 462.755L462.008 461.678L462.265 461.601L461.945 461.903C462.011 463.527 461.797 465.068 461.303 466.525C460.789 468.001 460.057 469.187 459.107 470.084C456.857 472.207 454.259 471.708 451.312 468.587L444.227 461.083L444.933 461.131L442.259 462.611C441.984 462.32 441.803 462.069 441.714 461.859C441.644 461.669 441.642 461.414 441.708 461.095L446.973 456.125C447.558 456.745 447.733 457.241 447.496 457.611L446.482 459.393L446.306 458.624L453.583 466.332C455.524 468.387 457.27 468.682 458.821 467.218C459.403 466.669 459.875 466.003 460.237 465.221C460.598 464.477 460.837 463.682 460.956 462.837C461.093 462.011 461.116 461.219 461.024 460.462L461.313 461.234L453.075 452.509L453.809 452.586L451.391 453.988C451.117 453.697 450.945 453.438 450.876 453.209C450.806 453.019 450.814 452.755 450.899 452.418L456.163 447.447ZM419.472 478.037C421.09 476.955 422.65 476.41 424.152 476.401C425.646 476.429 426.719 476.931 427.371 477.906C427.711 478.416 427.83 478.882 427.727 479.303C427.624 479.725 427.373 480.069 426.974 480.336C426.464 480.677 425.954 480.777 425.443 480.637C424.658 479.462 423.799 478.753 422.867 478.51C421.935 478.267 420.937 478.501 419.872 479.213C418.897 479.865 418.295 480.62 418.067 481.478C417.838 482.336 418.021 483.209 418.613 484.095C419.073 484.783 419.62 485.218 420.257 485.403C420.893 485.587 421.588 485.619 422.343 485.5C423.097 485.381 423.888 485.221 424.716 485.02C425.603 484.812 426.509 484.656 427.434 484.551C428.358 484.447 429.227 484.523 430.041 484.781C430.87 485.061 431.565 485.623 432.129 486.465C432.944 487.685 433.115 488.997 432.643 490.403C432.172 491.809 431.115 493.06 429.475 494.156C428.544 494.779 427.62 495.22 426.703 495.48C425.786 495.74 424.958 495.796 424.218 495.649C423.493 495.524 422.945 495.185 422.575 494.63C422.293 494.209 422.204 493.788 422.307 493.366C422.425 492.966 422.684 492.633 423.083 492.366C423.437 492.129 423.851 492.029 424.325 492.066C424.932 492.975 425.654 493.503 426.49 493.649C427.326 493.796 428.187 493.574 429.074 492.981C429.894 492.433 430.415 491.796 430.636 491.071C430.857 490.346 430.738 489.64 430.279 488.952C429.893 488.376 429.42 488.003 428.857 487.834C428.288 487.701 427.655 487.691 426.96 487.802C426.265 487.914 425.537 488.048 424.775 488.204C423.807 488.435 422.819 488.613 421.814 488.74C420.786 488.882 419.817 488.824 418.907 488.566C418.012 488.33 417.238 487.725 416.586 486.749C415.949 485.796 415.648 484.794 415.684 483.744C415.735 482.716 416.081 481.698 416.723 480.692C417.381 479.707 418.297 478.822 419.472 478.037ZM401.123 489.279C402.468 488.572 403.737 488.463 404.927 488.952C406.13 489.465 407.234 490.678 408.238 492.59L413.073 501.798L412.263 501.546L414.663 500.782C414.841 500.719 415.027 500.757 415.22 500.896C415.426 501.059 415.635 501.341 415.845 501.743C415.01 502.332 414.381 502.768 413.957 503.051C413.522 503.37 413.163 503.603 412.879 503.752C412.242 504.087 411.689 504.181 411.221 504.036C410.729 503.902 410.31 503.505 409.963 502.844L405.407 494.167C404.737 492.892 403.993 492.078 403.175 491.725C402.346 491.407 401.435 491.509 400.444 492.03C399.806 492.364 399.272 492.781 398.841 493.278C398.385 493.788 398.038 494.332 397.799 494.909C397.549 495.522 397.388 496.134 397.317 496.744L397.249 496.012L403.051 507.061L402.241 506.809L404.676 506.026C404.854 505.963 405.04 506.001 405.233 506.141C405.416 506.316 405.612 506.604 405.823 507.006C404.988 507.595 404.358 508.031 403.935 508.314C403.5 508.632 403.152 508.86 402.893 508.996C402.232 509.343 401.667 509.444 401.199 509.298C400.731 509.153 400.323 508.749 399.976 508.088L394.044 496.791C393.833 496.39 393.589 496.126 393.312 496C393.012 495.887 392.708 495.911 392.401 496.072C392.142 496.209 391.901 496.41 391.68 496.677C391.447 496.98 391.262 497.288 391.126 497.6L390.34 496.793C390.506 496.134 390.816 495.519 391.27 494.95C391.723 494.38 392.222 493.953 392.765 493.667C393.497 493.283 394.199 493.215 394.872 493.464C395.558 493.737 396.136 494.322 396.607 495.219L396.784 495.126C397.41 492.418 398.856 490.469 401.123 489.279ZM383.671 498.811C383.954 499.615 383.913 500.139 383.546 500.381L381.648 501.856L381.877 501.182L386.769 515.065L386.117 514.658L388.489 514.289C388.893 514.232 389.237 514.605 389.52 515.41C388.618 515.898 387.936 516.251 387.476 516.47C387 516.722 386.598 516.906 386.271 517.022C385.617 517.252 385.094 517.252 384.702 517.023C384.31 516.794 383.986 516.314 383.729 515.585L383.237 514.189L383.428 514.249L383.088 514.368C382.54 515.862 381.757 517.17 380.739 518.292C379.696 519.423 378.595 520.193 377.438 520.601C376.03 521.097 374.809 520.962 373.775 520.195C372.742 519.428 371.866 518.026 371.148 515.989L367.665 506.105L368.304 506.473L365.526 506.774C365.393 506.396 365.341 506.089 365.371 505.853C365.384 505.65 365.486 505.416 365.675 505.152L372.277 502.825C372.561 503.63 372.519 504.154 372.152 504.396L370.466 505.627L370.694 504.952L374.177 514.837C375.117 517.503 376.53 518.503 378.416 517.839C379.12 517.59 379.771 517.191 380.369 516.641C380.976 516.117 381.492 515.496 381.919 514.781C382.329 514.099 382.633 513.398 382.832 512.678L382.783 513.501L378.794 502.183L379.433 502.552L376.655 502.852C376.522 502.475 376.471 502.168 376.5 501.931C376.514 501.728 376.628 501.49 376.842 501.217L383.671 498.811ZM361.148 506.747C361.432 507.552 361.39 508.076 361.023 508.318L359.336 509.549L359.565 508.874L363.048 518.758C363.988 521.424 365.401 522.425 367.287 521.76C368.318 521.397 369.226 520.724 370.01 519.74C370.778 518.791 371.322 517.766 371.64 516.664L372.6 518.064L372.035 518.264C371.461 519.766 370.666 521.079 369.647 522.201C368.604 523.332 367.504 524.101 366.347 524.509C364.913 525.014 363.68 524.883 362.646 524.117C361.613 523.35 360.737 521.948 360.019 519.911L356.589 510.177L357.215 510.508L354.17 510.775C354.037 510.398 353.986 510.091 354.015 509.854C354.029 509.652 354.13 509.418 354.32 509.153L361.148 506.747ZM347.308 511.461C347.451 512.303 347.321 512.812 346.918 512.988L344.797 514.119L345.137 513.494L347.602 528.006L347.029 527.495L349.429 527.533C349.837 527.545 350.112 527.972 350.255 528.813C349.283 529.14 348.551 529.373 348.061 529.51C347.548 529.678 347.121 529.792 346.779 529.85C346.096 529.966 345.58 529.877 345.233 529.585C344.886 529.292 344.648 528.765 344.518 528.002L344.27 526.543L344.448 526.635L344.093 526.695C343.3 528.074 342.306 529.23 341.112 530.163C339.892 531.101 338.677 531.672 337.467 531.877C335.995 532.128 334.815 531.787 333.926 530.856C333.038 529.925 332.413 528.395 332.051 526.265L330.296 515.933L330.863 516.405L328.075 516.229C328.008 515.835 328.009 515.524 328.078 515.296C328.126 515.098 328.266 514.885 328.497 514.656L335.398 513.484C335.541 514.326 335.411 514.834 335.008 515.011L333.137 515.938L333.477 515.312L335.232 525.644C335.705 528.431 336.928 529.656 338.9 529.322C339.636 529.197 340.345 528.914 341.028 528.473C341.715 528.059 342.329 527.535 342.871 526.902C343.391 526.3 343.809 525.661 344.127 524.985L343.939 525.788L341.93 513.957L342.497 514.429L339.708 514.253C339.641 513.859 339.642 513.548 339.712 513.32C339.759 513.122 339.912 512.907 340.17 512.674L347.308 511.461ZM323.765 515.46C323.908 516.301 323.778 516.81 323.375 516.987L321.504 517.913L321.844 517.288L323.599 527.62C324.072 530.406 325.295 531.632 327.266 531.297C328.344 531.114 329.353 530.605 330.293 529.769C331.211 528.964 331.921 528.045 332.422 527.014L333.13 528.557L332.539 528.657C331.719 530.041 330.712 531.199 329.518 532.132C328.298 533.07 327.083 533.641 325.874 533.847C324.375 534.101 323.181 533.763 322.293 532.832C321.405 531.901 320.78 530.371 320.418 528.241L318.69 518.067L319.25 518.499L316.205 518.245C316.138 517.851 316.139 517.54 316.208 517.312C316.256 517.114 316.396 516.901 316.627 516.672L323.765 515.46ZM301.375 517.607C303.001 517.553 304.438 517.865 305.689 518.543C306.913 519.249 307.88 520.244 308.59 521.527C309.3 522.811 309.684 524.306 309.741 526.011C309.807 527.957 309.466 529.716 308.718 531.289C307.944 532.862 306.892 534.125 305.563 535.076C304.234 536.028 302.77 536.531 301.171 536.585C299.785 536.631 298.575 536.352 297.541 535.746C296.481 535.168 295.639 534.329 295.015 533.229C294.391 532.13 294.055 530.847 294.006 529.381C293.989 528.875 294.07 528.525 294.251 528.332C294.432 528.166 294.642 528.079 294.882 528.071L307.475 527.648L307.517 528.887L296.652 529.532L297.077 529.078C297.067 530.359 297.264 531.46 297.668 532.38C298.046 533.301 298.577 534.004 299.26 534.488C299.917 534.999 300.686 535.24 301.565 535.211C303.031 535.161 304.208 534.442 305.095 533.051C305.982 531.661 306.384 529.726 306.301 527.247C306.247 525.648 305.974 524.257 305.48 523.073C304.961 521.916 304.238 521.02 303.309 520.384C302.38 519.748 301.277 519.451 299.997 519.494C298.931 519.53 297.914 519.831 296.946 520.397C295.979 520.99 295.125 521.793 294.385 522.805L293.832 521.823C294.365 521.004 295.034 520.275 295.84 519.634C296.646 519.02 297.524 518.537 298.473 518.185C299.395 517.834 300.362 517.641 301.375 517.607ZM285.782 518.48C285.734 519.279 285.492 519.745 285.056 519.879L282.735 520.501L283.215 519.849L282.326 534.662L281.883 534.034L284.212 534.615C284.395 534.679 284.534 534.821 284.627 535.041C284.719 535.287 284.753 535.623 284.727 536.048C283.679 536.146 282.901 536.206 282.392 536.229C281.881 536.278 281.453 536.293 281.107 536.272C280.468 536.234 280 536.018 279.703 535.627C279.405 535.261 279.28 534.666 279.33 533.841L279.43 532.164L279.655 532.418L279.256 532.394C278.462 533.602 277.523 534.561 276.439 535.27C275.328 535.978 274.293 536.304 273.335 536.246C272.323 536.185 271.618 535.916 271.219 535.438C270.819 534.987 270.639 534.428 270.679 533.763C270.709 533.257 270.895 532.827 271.237 532.474C271.552 532.119 271.949 531.955 272.428 531.984C272.76 532.699 273.118 533.188 273.502 533.451C273.887 533.715 274.319 533.861 274.799 533.89C275.544 533.934 276.349 533.649 277.214 533.033C278.079 532.417 278.873 531.663 279.594 530.771L279.269 531.513L279.978 519.695L280.494 520.447L277.066 519.48C277.09 519.08 277.162 518.777 277.281 518.571C277.373 518.363 277.572 518.174 277.876 518.006L285.782 518.48ZM244.397 513.06C246.012 513.416 247.354 514.079 248.423 515.052C249.467 516.018 250.174 517.211 250.544 518.631C250.915 520.05 250.908 521.632 250.524 523.377C250.095 525.331 249.339 526.966 248.257 528.285C247.144 529.624 245.818 530.561 244.281 531.096C242.737 531.658 241.106 531.75 239.387 531.372C238.215 531.114 237.19 530.684 236.313 530.081C235.429 529.505 234.786 528.831 234.382 528.059C233.952 527.282 233.823 526.503 233.995 525.722C234.109 525.201 234.357 524.818 234.739 524.575C235.088 524.351 235.523 524.297 236.044 524.411C236.279 524.463 236.494 524.538 236.691 524.635C236.882 524.759 237.071 524.896 237.256 525.046C236.953 526.427 237.046 527.553 237.537 528.426C238.002 529.292 238.846 529.86 240.07 530.129C241.737 530.496 243.159 530.113 244.337 528.979C245.509 527.872 246.364 526.094 246.902 523.646C247.463 521.093 247.408 519.047 246.737 517.507C246.033 515.987 244.718 515.015 242.791 514.591C241.749 514.362 240.701 514.35 239.645 514.555C238.558 514.78 237.522 515.207 236.537 515.837L236.236 514.788C236.932 514.231 237.74 513.781 238.662 513.437C239.553 513.114 240.495 512.926 241.49 512.872C242.464 512.786 243.434 512.849 244.397 513.06ZM222.587 507.324C224.94 508.108 226.554 509.461 227.431 511.384C228.308 513.307 228.338 515.495 227.52 517.949C226.887 519.846 225.93 521.411 224.649 522.642C223.342 523.864 221.849 524.674 220.171 525.07C218.493 525.467 216.756 525.365 214.959 524.767C213.391 524.244 212.151 523.451 211.241 522.389C210.321 521.351 209.748 520.12 209.52 518.695C209.293 517.27 209.453 515.735 210.001 514.091C210.642 512.168 211.603 510.591 212.885 509.36C214.158 508.154 215.647 507.357 217.35 506.969C219.02 506.598 220.765 506.716 222.587 507.324ZM221.436 508.373C219.741 507.808 218.21 508.057 216.844 509.12C215.453 510.174 214.348 511.928 213.53 514.382C212.712 516.836 212.514 518.864 212.936 520.466C213.357 522.068 214.39 523.143 216.035 523.692C217.73 524.257 219.273 524.012 220.664 522.958C222.047 521.929 223.156 520.162 223.991 517.658C224.809 515.204 225.007 513.176 224.585 511.574C224.13 509.988 223.08 508.922 221.436 508.373ZM206.047 502.211C205.865 502.626 205.682 502.91 205.499 503.062C205.315 503.215 205.11 503.285 204.882 503.272L202.379 503.004L203.007 502.668L192.543 526.513L192.345 525.771L194.439 527.17C194.773 527.404 194.769 527.912 194.426 528.693C193.566 528.462 192.84 528.259 192.246 528.086C191.652 527.913 191.099 527.714 190.586 527.489C189.463 526.996 189.212 526.041 189.833 524.625L200.008 501.439L200.239 502.108L197.577 500.11C197.738 499.744 197.91 499.485 198.093 499.332C198.242 499.193 198.488 499.097 198.831 499.044L206.047 502.211ZM191.012 495.517C190.8 495.917 190.597 496.187 190.403 496.326C190.209 496.465 189.999 496.52 189.773 496.491L187.296 496.041L187.947 495.752L175.78 518.775L175.636 518.02L177.623 519.568C177.939 519.825 177.898 520.331 177.5 521.086C176.659 520.793 175.949 520.538 175.37 520.322C174.79 520.106 174.252 519.868 173.757 519.606C172.673 519.033 172.492 518.063 173.215 516.695L185.045 494.309L185.226 494.993L182.717 492.807C182.903 492.453 183.094 492.207 183.288 492.068C183.446 491.941 183.698 491.863 184.045 491.835L191.012 495.517ZM170.366 483.195C171.733 484.076 172.738 485.152 173.379 486.421C173.983 487.699 174.211 489.068 174.064 490.527C173.916 491.987 173.38 493.434 172.456 494.868C171.401 496.504 170.119 497.756 168.608 498.623C167.076 499.475 165.492 499.914 163.858 499.939C162.223 499.964 160.734 499.544 159.389 498.677C158.223 497.926 157.388 497.007 156.883 495.92C156.341 494.841 156.127 493.672 156.24 492.412C156.354 491.153 156.808 489.907 157.603 488.674C157.877 488.249 158.143 488.008 158.401 487.952C158.645 487.919 158.868 487.967 159.069 488.097L169.66 494.923L168.989 495.965L159.692 490.306L160.3 490.175C159.562 491.222 159.097 492.239 158.905 493.225C158.691 494.198 158.726 495.077 159.012 495.864C159.261 496.659 159.756 497.295 160.495 497.772C161.728 498.567 163.105 498.645 164.627 498.008C166.148 497.37 167.58 496.009 168.924 493.924C169.79 492.579 170.358 491.28 170.627 490.026C170.86 488.779 170.775 487.63 170.374 486.579C169.973 485.527 169.235 484.655 168.159 483.961C167.262 483.384 166.255 483.052 165.137 482.965C164.004 482.902 162.845 483.075 161.661 483.485L161.765 482.363C162.669 481.994 163.635 481.776 164.662 481.708C165.675 481.663 166.671 481.766 167.652 482.017C168.609 482.253 169.514 482.646 170.366 483.195ZM151.5 469.962C152.792 470.994 153.703 472.182 154.233 473.527C154.742 474.855 154.85 476.237 154.556 477.674C154.261 479.111 153.557 480.528 152.442 481.924C151.194 483.487 149.794 484.621 148.241 485.327C146.651 486.036 145.048 486.292 143.432 486.093C141.799 485.916 140.295 485.278 138.92 484.18C137.982 483.431 137.252 482.593 136.731 481.665C136.193 480.757 135.913 479.868 135.891 478.998C135.849 478.111 136.077 477.355 136.576 476.73C136.909 476.313 137.3 476.079 137.75 476.029C138.162 475.983 138.577 476.126 138.993 476.459C139.181 476.608 139.341 476.771 139.475 476.945C139.592 477.141 139.7 477.347 139.8 477.564C138.918 478.668 138.505 479.72 138.56 480.719C138.594 481.702 139.101 482.585 140.081 483.367C141.414 484.432 142.86 484.715 144.417 484.218C145.957 483.742 147.51 482.525 149.074 480.566C150.704 478.523 151.558 476.663 151.636 474.985C151.676 473.31 150.925 471.858 149.383 470.626C148.549 469.961 147.614 469.487 146.576 469.205C145.502 468.927 144.383 468.853 143.222 468.983L143.414 467.909C144.284 467.716 145.209 467.669 146.188 467.768C147.129 467.872 148.058 468.119 148.975 468.509C149.887 468.862 150.729 469.347 151.5 469.962ZM135.505 456.388C136.43 457.273 136.848 458.225 136.757 459.246C136.648 460.248 136.031 461.337 134.907 462.512L123.075 474.886C122.754 474.874 122.413 474.806 122.052 474.682C121.653 474.559 121.263 474.408 120.882 474.228C120.481 474.029 120.137 473.81 119.848 473.572L132.233 460.62C132.952 459.868 133.371 459.218 133.491 458.668C133.573 458.119 133.334 457.578 132.776 457.043C132.332 456.619 131.768 456.264 131.083 455.978C130.378 455.673 129.582 455.502 128.695 455.465L128.981 454.356C129.432 454.27 130.054 454.275 130.849 454.37C131.624 454.447 132.43 454.646 133.267 454.967C134.104 455.288 134.85 455.762 135.505 456.388ZM120.988 465.087L128.8 472.834C128.542 473.104 128.283 473.317 128.022 473.474C127.724 473.631 127.461 473.694 127.234 473.661L118.836 466.239C118.889 466.105 118.952 465.981 119.025 465.867C119.08 465.771 119.153 465.675 119.245 465.579C119.54 465.27 119.847 465.065 120.165 464.964C120.465 464.882 120.739 464.923 120.988 465.087ZM126.306 448.097C125.671 448.668 125.172 448.83 124.807 448.584L122.638 447.307L123.348 447.26L112.281 457.207L112.407 456.448L113.737 458.587C113.965 458.92 113.752 459.381 113.097 459.969C112.392 459.384 111.823 458.891 111.392 458.49C110.922 458.088 110.491 457.668 110.099 457.232C109.279 456.32 109.434 455.355 110.565 454.339L121.096 444.874L121.03 445.578L119.456 442.69C119.754 442.423 120.018 442.258 120.248 442.194C120.44 442.129 120.704 442.143 121.039 442.237L126.306 448.097ZM107.127 459.849C107.555 460.325 107.756 460.808 107.73 461.298C107.684 461.805 107.443 462.255 107.006 462.647C106.57 463.039 106.079 463.211 105.534 463.163C104.971 463.095 104.521 462.873 104.182 462.496C103.754 462.02 103.563 461.529 103.609 461.021C103.617 460.512 103.849 460.052 104.306 459.642C104.722 459.268 105.212 459.115 105.775 459.182C106.32 459.23 106.771 459.453 107.127 459.849ZM111.229 429.407C112.713 431.394 113.266 433.427 112.888 435.506C112.511 437.586 111.286 439.399 109.213 440.947C107.611 442.144 105.932 442.881 104.177 443.161C102.406 443.418 100.718 443.231 99.1139 442.598C97.5098 441.966 96.1414 440.891 95.0085 439.374C94.0192 438.049 93.454 436.691 93.3128 435.298C93.1503 433.922 93.3824 432.584 94.0091 431.284C94.6357 429.984 95.6435 428.815 97.0323 427.778C98.6561 426.565 100.346 425.819 102.101 425.54C103.835 425.277 105.512 425.473 107.132 426.127C108.714 426.775 110.08 427.869 111.229 429.407ZM109.685 429.612C108.615 428.18 107.217 427.511 105.489 427.603C103.744 427.674 101.836 428.484 99.7637 430.031C97.6911 431.579 96.3706 433.131 95.8021 434.687C95.2336 436.244 95.4679 437.716 96.505 439.105C97.5741 440.536 98.9807 441.217 100.725 441.145C102.448 441.09 104.367 440.273 106.482 438.693C108.554 437.146 109.875 435.594 110.443 434.037C110.975 432.476 110.722 431.001 109.685 429.612ZM100.603 415.738C99.8651 416.166 99.3428 416.222 99.0366 415.906L97.2359 414.315L98.0449 414.354L85.2048 421.795L85.4833 421.079L86.2858 423.341C86.4172 423.727 86.1137 424.134 85.3753 424.562C84.7289 423.766 84.2555 423.162 83.9553 422.75C83.6187 422.329 83.3635 421.968 83.1897 421.668C82.8421 421.068 82.7447 420.554 82.8976 420.127C83.0505 419.699 83.4615 419.291 84.1306 418.904L85.4111 418.162L85.4276 418.429L85.207 418.049C83.6109 417.741 82.1604 417.179 80.8555 416.363C79.5373 415.525 78.5507 414.54 77.8955 413.409C76.3446 410.733 77.4265 408.318 81.1413 406.166L90.0705 400.992L89.8612 401.668L89.0347 398.726C89.3808 398.525 89.6662 398.406 89.8909 398.368C90.0925 398.344 90.3409 398.4 90.6361 398.537L94.2661 404.802C93.5277 405.229 93.0055 405.285 92.6993 404.97L91.1974 403.575L91.9863 403.58L82.8149 408.894C80.3692 410.312 79.6811 411.943 80.7507 413.789C81.1518 414.481 81.6913 415.093 82.3693 415.625C83.0108 416.147 83.7294 416.563 84.5251 416.872C85.2978 417.195 86.0631 417.399 86.821 417.483L86.003 417.588L96.3858 411.571L96.1419 412.267L95.3319 409.593C95.678 409.392 95.9701 409.285 96.2082 409.27C96.4098 409.246 96.6649 409.314 96.9735 409.474L100.603 415.738ZM79.2892 373.005C79.9684 374.83 80.1393 376.473 79.8018 377.936C79.4301 379.384 78.6944 380.312 77.5948 380.721C77.02 380.935 76.5393 380.944 76.1528 380.746C75.7662 380.549 75.4892 380.225 75.3218 379.775C75.1078 379.2 75.1277 378.681 75.3817 378.216C76.7062 377.723 77.5942 377.051 78.0457 376.2C78.4971 375.349 78.4996 374.324 78.053 373.124C77.6436 372.025 77.0478 371.265 76.2654 370.845C75.483 370.425 74.592 370.401 73.5923 370.773C72.8176 371.061 72.2672 371.494 71.9413 372.07C71.6153 372.647 71.4233 373.316 71.3653 374.077C71.3073 374.839 71.2804 375.646 71.2846 376.498C71.2825 377.409 71.2256 378.326 71.1142 379.25C71.0028 380.174 70.7277 381.002 70.289 381.734C69.8253 382.476 69.1186 383.023 68.1689 383.377C66.7944 383.889 65.4777 383.753 64.2186 382.969C62.9595 382.186 61.9858 380.87 61.2973 379.021C60.9066 377.971 60.6905 376.97 60.649 376.018C60.6076 375.066 60.7438 374.247 61.0575 373.561C61.3463 372.885 61.8031 372.43 62.4278 372.197C62.9027 372.021 63.3334 372.031 63.7199 372.229C64.0815 372.435 64.346 372.764 64.5134 373.214C64.6623 373.613 64.6644 374.04 64.5197 374.492C63.4951 374.873 62.8149 375.454 62.4791 376.233C62.1432 377.013 62.1614 377.902 62.5336 378.902C62.8778 379.826 63.3772 380.48 64.0317 380.862C64.6862 381.245 65.4008 381.292 66.1755 381.003C66.8253 380.761 67.2975 380.386 67.5921 379.878C67.8524 379.355 68.0084 378.742 68.06 378.04C68.1116 377.337 68.1492 376.598 68.1729 375.821C68.1722 374.825 68.2261 373.823 68.3346 372.815C68.4338 371.783 68.7138 370.853 69.1746 370.027C69.6104 369.21 70.3781 368.597 71.4777 368.188C72.5523 367.788 73.5965 367.727 74.6102 368.004C75.5989 368.29 76.5089 368.862 77.3402 369.719C78.1465 370.585 78.7962 371.681 79.2892 373.005ZM72.5899 352.565C72.9663 354.038 72.779 355.297 72.0278 356.342C71.2507 357.394 69.8159 358.187 67.7232 358.722L57.6472 361.298L58.0799 360.568L58.2678 363.08C58.2882 363.267 58.2083 363.439 58.028 363.595C57.8219 363.758 57.4992 363.895 57.06 364.008C56.6799 363.059 56.4012 362.346 56.2241 361.868C56.0145 361.371 55.87 360.968 55.7908 360.658C55.6125 359.96 55.6483 359.4 55.8983 358.979C56.1417 358.531 56.6251 358.215 57.3485 358.03L66.8432 355.603C68.2384 355.246 69.2025 354.711 69.7355 353.996C70.2361 353.263 70.3477 352.354 70.0703 351.269C69.892 350.571 69.6106 349.955 69.2262 349.42C68.8352 348.859 68.3865 348.396 67.88 348.03C67.3412 347.645 66.7834 347.347 66.2066 347.137L66.9348 347.24L54.8436 350.33L55.2763 349.601L55.4741 352.151C55.4945 352.338 55.4146 352.51 55.2343 352.666C55.0216 352.803 54.6957 352.928 54.2565 353.04C53.8763 352.092 53.5977 351.378 53.4205 350.901C53.2109 350.404 53.0698 350.013 52.9971 349.729C52.8122 349.006 52.8448 348.433 53.0948 348.011C53.3448 347.59 53.8315 347.286 54.5549 347.101L66.9174 343.941C67.3566 343.829 67.6693 343.653 67.8556 343.412C68.0353 343.146 68.0822 342.845 67.9964 342.509C67.9237 342.225 67.7832 341.945 67.5747 341.668C67.3339 341.371 67.0771 341.12 66.8043 340.915L67.7714 340.337C68.3746 340.651 68.9008 341.095 69.3501 341.668C69.7994 342.241 70.1 342.825 70.2519 343.419C70.4567 344.22 70.3601 344.919 69.9623 345.516C69.5386 346.12 68.8359 346.547 67.8541 346.798L67.9037 346.992C70.3938 348.227 71.9559 350.085 72.5899 352.565ZM67.3494 333.379C66.5008 333.469 66.001 333.308 65.8498 332.895L64.8531 330.708L65.4565 331.086L50.8189 332.642L51.3648 332.101L51.1767 334.495C51.1394 334.901 50.6965 335.149 49.8479 335.239C49.5817 334.248 49.3953 333.504 49.2888 333.006C49.1529 332.484 49.0666 332.051 49.0299 331.706C48.9567 331.016 49.0769 330.507 49.3906 330.179C49.7044 329.851 50.2457 329.646 51.0147 329.564L52.4864 329.408L52.384 329.579L52.346 329.221C51.0191 328.343 49.9272 327.28 49.0703 326.03C48.2106 324.753 47.716 323.505 47.5864 322.286C47.4285 320.801 47.8419 319.644 48.8265 318.815C49.8112 317.986 51.3774 317.458 53.5253 317.23L63.9466 316.122L63.4405 316.659L63.7895 313.886C64.1872 313.844 64.4978 313.865 64.7212 313.948C64.9153 314.008 65.1192 314.161 65.333 314.406L66.0728 321.367C65.2242 321.457 64.7244 321.296 64.5732 320.883L63.7652 318.957L64.3686 319.336L53.9473 320.443C51.1364 320.742 49.8367 321.886 50.048 323.874C50.1269 324.617 50.365 325.342 50.7621 326.051C51.1327 326.763 51.617 327.408 52.2149 327.988C52.7836 328.545 53.3954 329.003 54.0504 329.362L53.2608 329.124L65.1936 327.856L64.6875 328.393L65.0365 325.62C65.4342 325.578 65.7448 325.599 65.9682 325.682C66.1623 325.742 66.3676 325.908 66.5843 326.18L67.3494 333.379ZM64.8258 309.633C63.9772 309.723 63.4774 309.562 63.3262 309.149L62.5182 307.223L63.1216 307.602L52.7003 308.709C49.8894 309.008 48.5897 310.152 48.801 312.14C48.9166 313.228 49.3622 314.266 50.1378 315.257C50.8842 316.223 51.7566 316.989 52.7552 317.553L51.1708 318.164L51.1074 317.567C49.7777 316.663 48.6844 315.585 47.8276 314.336C46.9679 313.059 46.4732 311.811 46.3436 310.591C46.183 309.08 46.5949 307.91 47.5796 307.081C48.5642 306.252 50.1304 305.724 52.2783 305.496L62.5405 304.405L62.0742 304.937L62.5171 301.914C62.9149 301.871 63.2255 301.892 63.4489 301.976C63.6429 302.035 63.8469 302.188 64.0607 302.433L64.8258 309.633ZM63.4304 295.046C62.5787 294.993 62.1129 294.75 62.0331 294.318L61.4167 291.995L61.9481 292.469L47.2568 291.551L47.8855 291.11L47.2993 293.438C47.1945 293.832 46.7163 294.002 45.8646 293.949C45.7681 292.928 45.709 292.163 45.6873 291.654C45.6407 291.116 45.6282 290.675 45.6498 290.329C45.6931 289.637 45.8968 289.155 46.2611 288.884C46.6254 288.613 47.1934 288.501 47.9652 288.55L49.4424 288.642L49.3126 288.794L49.3351 288.435C48.1739 287.347 47.2756 286.115 46.6401 284.74C46.0063 283.337 45.7276 282.024 45.8041 280.8C45.8972 279.309 46.4984 278.238 47.6079 277.586C48.7174 276.934 50.35 276.675 52.5058 276.81L62.9654 277.463L62.3766 277.907L63.1849 275.232C63.5841 275.257 63.8869 275.33 64.0931 275.449C64.2745 275.541 64.45 275.726 64.6196 276.003L64.1833 282.99C63.3317 282.937 62.8659 282.694 62.786 282.261L62.3119 280.228L62.8433 280.702L52.3837 280.049C49.5625 279.872 48.0896 280.782 47.965 282.778C47.9184 283.524 48.0316 284.279 48.3044 285.044C48.5506 285.807 48.9199 286.525 49.4124 287.197C49.8798 287.841 50.4063 288.395 50.9919 288.859L50.2533 288.492L62.2299 289.24L61.6411 289.684L62.4494 287.009C62.8486 287.034 63.1514 287.107 63.3576 287.227C63.539 287.318 63.7136 287.516 63.8817 287.82L63.4304 295.046ZM64.9188 271.213C64.0672 271.16 63.6014 270.917 63.5215 270.484L63.0474 268.451L63.5788 268.925L53.1192 268.271C50.298 268.095 48.8251 269.005 48.7005 271.001C48.6323 272.093 48.8977 273.191 49.4966 274.297C50.0705 275.375 50.8025 276.276 51.6924 277L50.0282 277.336L50.0656 276.738C48.9061 275.623 48.0086 274.378 47.3732 273.003C46.7393 271.6 46.4606 270.287 46.5371 269.063C46.6318 267.546 47.2339 266.461 48.3434 265.809C49.4529 265.157 51.0855 264.898 53.2413 265.033L63.5413 265.676L62.9923 266.123L63.9354 263.216C64.3346 263.241 64.6373 263.313 64.8436 263.433C65.0249 263.524 65.2004 263.709 65.3701 263.987L64.9188 271.213ZM67.9449 248.918C67.6268 250.513 66.9948 251.842 66.0489 252.904C65.082 253.935 63.8926 254.65 62.4808 255.048C61.069 255.446 59.5263 255.478 57.8526 255.145C55.9435 254.764 54.3087 254.03 52.9483 252.943C51.5931 251.83 50.6039 250.518 49.9807 249.007C49.3574 247.496 49.2022 245.956 49.5151 244.387C49.7862 243.027 50.3347 241.913 51.1604 241.044C51.9653 240.144 52.9742 239.516 54.1873 239.16C55.4004 238.803 56.7261 238.768 58.1645 239.055C58.6614 239.154 58.9831 239.314 59.1297 239.533C59.2501 239.748 59.2868 239.972 59.2399 240.208L56.7763 252.565L55.5602 252.322L57.4129 241.597L57.7584 242.115C56.5136 241.812 55.397 241.753 54.4087 241.936C53.4256 242.094 52.6204 242.45 51.9931 243.005C51.345 243.528 50.9348 244.221 50.7628 245.084C50.476 246.523 50.9083 247.833 52.0595 249.014C53.2108 250.195 55.0025 251.028 57.4346 251.513C59.0037 251.826 60.421 251.877 61.6865 251.667C62.931 251.426 63.9688 250.926 64.7999 250.167C65.631 249.408 66.1717 248.401 66.4219 247.146C66.6305 246.1 66.5697 245.041 66.2396 243.969C65.8833 242.892 65.297 241.878 64.4806 240.926L65.5629 240.612C66.238 241.317 66.7955 242.136 67.2353 243.066C67.649 243.992 67.919 244.956 68.0451 245.96C68.1764 246.938 68.143 247.924 67.9449 248.918ZM70.6497 233.578C69.8839 233.346 69.4861 233.003 69.4563 232.548L69.3883 230.146L69.912 230.764L55.7063 226.472L56.4195 226.186L55.3157 228.318C55.2106 228.481 55.0406 228.583 54.8055 228.623C54.5449 228.656 54.2104 228.61 53.802 228.487C53.9496 227.445 54.0712 226.674 54.1667 226.174C54.2367 225.665 54.3218 225.245 54.422 224.914C54.6072 224.301 54.9247 223.895 55.3746 223.697C55.799 223.491 56.4069 223.508 57.1982 223.747L58.8064 224.233L58.5073 224.393L58.623 224.01C57.6315 222.958 56.916 221.823 56.4765 220.604C56.0448 219.359 55.9677 218.277 56.2454 217.358C56.5385 216.388 56.9637 215.764 57.5211 215.487C58.0529 215.202 58.6379 215.156 59.2761 215.349C59.7611 215.495 60.136 215.776 60.4008 216.19C60.6734 216.579 60.7402 217.003 60.6014 217.462C59.8297 217.619 59.2711 217.854 58.9257 218.168C58.5803 218.481 58.3381 218.868 58.1993 219.327C57.9833 220.042 58.0749 220.892 58.4739 221.876C58.873 222.86 59.4228 223.806 60.1234 224.714L59.4769 224.226L70.8108 227.651L69.9596 227.979L71.6937 224.867C72.0766 224.983 72.3547 225.123 72.5281 225.287C72.7092 225.425 72.8466 225.661 72.9405 225.996L70.6497 233.578Z" fill="#087020"/>
</svg>
