<svg width="251" height="31" viewBox="0 0 251 31" fill="none" xmlns="http://www.w3.org/2000/svg">
<path d="M0 29.475C0 28.995 0.06 28.635 0.18 28.395C0.3 28.125 0.48 27.945 0.72 27.855L3.735 27.045L3.06 27.765V2.385L3.78 3.15L0 2.295C0 1.875 0.06 1.545 0.18 1.305C0.3 1.035 0.51 0.809999 0.81 0.63H12.195C14.835 0.63 16.905 1.185 18.405 2.295C19.905 3.405 20.655 4.92 20.655 6.84C20.655 8.07 20.355 9.195 19.755 10.215C19.155 11.235 18.33 12.06 17.28 12.69C16.23 13.32 15.045 13.695 13.725 13.815L13.905 13.5C15.405 13.56 16.755 13.935 17.955 14.625C19.155 15.315 20.1 16.215 20.79 17.325C21.51 18.435 21.87 19.665 21.87 21.015C21.87 22.695 21.465 24.18 20.655 25.47C19.875 26.73 18.765 27.72 17.325 28.44C15.885 29.13 14.19 29.475 12.24 29.475H0ZM11.52 27.54C13.59 27.54 15.165 27.015 16.245 25.965C17.355 24.885 17.91 23.34 17.91 21.33C17.91 19.17 17.325 17.55 16.155 16.47C15.015 15.36 13.335 14.805 11.115 14.805H6.3L6.75 14.4V27.18L6.3 26.64C6.99 26.91 7.815 27.135 8.775 27.315C9.765 27.465 10.68 27.54 11.52 27.54ZM6.75 13.23L6.165 12.555C6.285 12.615 6.615 12.675 7.155 12.735C7.695 12.765 8.31 12.795 9 12.825C9.72 12.825 10.38 12.825 10.98 12.825C12.84 12.825 14.295 12.39 15.345 11.52C16.395 10.65 16.92 9.39 16.92 7.74C16.92 6.06 16.395 4.785 15.345 3.915C14.295 3.015 12.795 2.565 10.845 2.565C10.125 2.565 9.375 2.625 8.595 2.745C7.845 2.865 7.08 3.045 6.3 3.285L6.75 2.88V13.23Z" fill="#222222"/>
<path d="M27.7734 29.475C27.7734 28.995 27.8334 28.62 27.9534 28.35C28.1034 28.08 28.2834 27.915 28.4934 27.855L31.5084 27.045L30.8334 27.765V2.385L31.4634 3.15L27.7734 2.295C27.7734 1.875 27.8334 1.545 27.9534 1.305C28.0734 1.065 28.2984 0.840001 28.6284 0.63H47.5734V6.3C47.0934 6.3 46.7184 6.24 46.4484 6.12C46.1784 6 45.9984 5.805 45.9084 5.535L44.7834 2.07L45.4134 2.475L34.0284 3.105L34.5234 2.52V14.175L34.0734 13.86H43.4784L42.8934 14.175L43.5684 11.025C43.8684 11.025 44.1684 11.07 44.4684 11.16C44.7684 11.25 45.0234 11.43 45.2334 11.7V18.045C45.0234 18.315 44.7684 18.495 44.4684 18.585C44.1684 18.645 43.8684 18.675 43.5684 18.675L42.8484 15.435L43.4784 15.84H34.0734L34.5234 15.435V27.315L34.0734 26.82L46.6284 27.63L46.0434 28.215L47.2584 22.815C47.6784 22.815 48.0084 22.875 48.2484 22.995C48.5184 23.115 48.7584 23.295 48.9684 23.535V29.475H27.7734Z" fill="#222222"/>
<path d="M51.8759 29.475C51.8759 28.995 51.9359 28.62 52.0559 28.35C52.2059 28.08 52.3859 27.915 52.5959 27.855L55.2509 27.045L54.1259 28.215L64.1159 0.855C64.2059 0.614999 64.3559 0.435 64.5659 0.315001C64.8059 0.195001 65.0459 0.12 65.2859 0.0899988C65.5559 0.0299996 65.7959 0 66.0059 0C66.1859 0 66.3659 0.0149998 66.5459 0.0449994C66.7559 0.0449994 66.9659 0.0749999 67.1759 0.135001L78.0659 28.08L76.6259 26.955L80.6309 27.81C80.6309 28.2 80.5709 28.515 80.4509 28.755C80.3309 28.995 80.1059 29.235 79.7759 29.475H70.7309C70.7309 28.995 70.7909 28.62 70.9109 28.35C71.0609 28.08 71.2409 27.915 71.4509 27.855L74.5109 27.045L74.1059 27.945L64.4759 3.33L65.4209 3.24L56.2859 28.215L56.1509 26.955L60.1559 27.81C60.1559 28.2 60.0959 28.515 59.9759 28.755C59.8859 28.995 59.6459 29.235 59.2559 29.475H51.8759ZM58.7159 19.755L59.2109 17.865H71.0459L71.6309 19.755H58.7159Z" fill="#222222"/>
<path d="M96.0585 30.015C93.4185 30.015 91.0935 29.43 89.0835 28.26C87.0735 27.06 85.4985 25.425 84.3585 23.355C83.2485 21.255 82.6935 18.84 82.6935 16.11C82.6935 13.8 83.0835 11.67 83.8635 9.72C84.6435 7.77 85.7235 6.075 87.1035 4.635C88.4835 3.165 90.1185 2.025 92.0085 1.215C93.8985 0.405 95.9385 0 98.1285 0C99.6585 0 101.128 0.195 102.538 0.585001C103.948 0.944999 105.238 1.485 106.408 2.205L105.553 8.505C105.073 8.505 104.683 8.43 104.383 8.28C104.083 8.13 103.918 7.95 103.888 7.74L103.483 3.285L104.203 4.41C103.453 3.78 102.433 3.285 101.143 2.925C99.8535 2.535 98.5035 2.34 97.0935 2.34C94.9935 2.34 93.1635 2.85 91.6035 3.87C90.0435 4.86 88.8435 6.285 88.0035 8.145C87.1635 10.005 86.7435 12.21 86.7435 14.76C86.7435 17.37 87.1635 19.65 88.0035 21.6C88.8735 23.55 90.0735 25.065 91.6035 26.145C93.1335 27.225 94.9035 27.765 96.9135 27.765C98.4735 27.765 99.9285 27.45 101.278 26.82C102.658 26.19 103.678 25.365 104.338 24.345L103.528 26.1L104.068 19.935C104.728 19.935 105.208 19.995 105.508 20.115C105.808 20.235 106.003 20.415 106.093 20.655L106.363 26.505C105.163 27.585 103.633 28.44 101.773 29.07C99.9135 29.7 98.0085 30.015 96.0585 30.015Z" fill="#222222"/>
<path d="M112.456 29.475C112.456 28.995 112.516 28.62 112.636 28.35C112.786 28.08 112.966 27.915 113.176 27.855L116.191 27.045L115.516 27.765V2.385L116.236 3.15L112.456 2.295C112.456 1.875 112.516 1.545 112.636 1.305C112.756 1.065 112.981 0.840001 113.311 0.63H122.356C122.356 1.11 122.296 1.485 122.176 1.755C122.056 2.025 121.876 2.19 121.636 2.25L118.441 3.06L119.206 2.295V14.265L118.891 13.86H134.146L133.831 14.265V2.385L134.551 3.15L130.726 2.295C130.726 1.875 130.786 1.545 130.906 1.305C131.026 1.065 131.251 0.840001 131.581 0.63H140.806C140.806 1.11 140.746 1.485 140.626 1.755C140.506 2.025 140.326 2.19 140.086 2.25L136.891 3.06L137.521 2.295V27.72L136.846 26.955L140.806 27.81C140.806 28.2 140.746 28.515 140.626 28.755C140.536 28.995 140.311 29.235 139.951 29.475H130.726C130.726 28.995 130.786 28.62 130.906 28.35C131.056 28.08 131.236 27.915 131.446 27.855L134.506 27.045L133.831 27.765V15.435L134.146 15.84H118.891L119.206 15.435V27.72L118.396 26.955L122.356 27.81C122.356 28.2 122.296 28.515 122.176 28.755C122.086 28.995 121.876 29.235 121.546 29.475H112.456Z" fill="#222222"/>
<path d="M146.689 29.475C146.689 28.995 146.749 28.62 146.869 28.35C147.019 28.08 147.199 27.915 147.409 27.855L150.424 27.045L149.749 27.765V2.385L150.379 3.15L146.689 2.295C146.689 1.875 146.734 1.545 146.824 1.305C146.944 1.065 147.154 0.840001 147.454 0.63H160.369C162.559 0.63 164.464 1.005 166.084 1.755C167.734 2.475 169.099 3.465 170.179 4.725C171.259 5.955 172.069 7.365 172.609 8.955C173.149 10.545 173.419 12.21 173.419 13.95C173.419 15.78 173.104 17.625 172.474 19.485C171.844 21.315 170.929 22.98 169.729 24.48C168.529 25.98 167.059 27.195 165.319 28.125C163.609 29.025 161.644 29.475 159.424 29.475H146.689ZM159.199 27.45C160.879 27.45 162.349 27.12 163.609 26.46C164.869 25.77 165.919 24.855 166.759 23.715C167.629 22.545 168.274 21.225 168.694 19.755C169.144 18.285 169.369 16.755 169.369 15.165C169.369 12.915 168.979 10.83 168.199 8.91C167.419 6.99 166.264 5.46 164.734 4.32C163.204 3.15 161.314 2.565 159.064 2.565C157.744 2.565 156.559 2.64 155.509 2.79C154.459 2.94 153.574 3.135 152.854 3.375L153.439 2.7V27.315L152.989 26.685C153.859 26.955 154.834 27.15 155.914 27.27C156.994 27.39 158.089 27.45 159.199 27.45Z" fill="#222222"/>
<path d="M175.23 29.475C175.23 28.995 175.29 28.62 175.41 28.35C175.56 28.08 175.74 27.915 175.95 27.855L178.605 27.045L177.48 28.215L187.47 0.855C187.56 0.614999 187.71 0.435 187.92 0.315001C188.16 0.195001 188.4 0.12 188.64 0.0899988C188.91 0.0299996 189.15 0 189.36 0C189.54 0 189.72 0.0149998 189.9 0.0449994C190.11 0.0449994 190.32 0.0749999 190.53 0.135001L201.42 28.08L199.98 26.955L203.985 27.81C203.985 28.2 203.925 28.515 203.805 28.755C203.685 28.995 203.46 29.235 203.13 29.475H194.085C194.085 28.995 194.145 28.62 194.265 28.35C194.415 28.08 194.595 27.915 194.805 27.855L197.865 27.045L197.46 27.945L187.83 3.33L188.775 3.24L179.64 28.215L179.505 26.955L183.51 27.81C183.51 28.2 183.45 28.515 183.33 28.755C183.24 28.995 183 29.235 182.61 29.475H175.23ZM182.07 19.755L182.565 17.865H194.4L194.985 19.755H182.07Z" fill="#222222"/>
<path d="M216.255 21.555L204.555 2.25L205.86 3.15L202.125 2.295C202.125 1.875 202.185 1.545 202.305 1.305C202.425 1.065 202.65 0.840001 202.98 0.63H212.25C212.25 1.11 212.19 1.485 212.07 1.755C211.95 2.025 211.77 2.19 211.53 2.25L208.11 3.06L208.695 2.025L217.605 16.74L216.255 16.875L223.815 2.205L224.175 3.06L220.485 2.295C220.485 1.875 220.53 1.545 220.62 1.305C220.74 1.065 220.965 0.840001 221.295 0.63H229.08C229.08 1.11 229.02 1.485 228.9 1.755C228.78 2.025 228.6 2.19 228.36 2.25L225.435 2.97L226.245 1.98L216.255 21.555ZM210.855 29.475C210.855 28.995 210.915 28.62 211.035 28.35C211.185 28.08 211.365 27.915 211.575 27.855L214.905 27.045L214.185 28.08V17.1H217.875V27.855L217.11 26.955L221.34 27.81C221.34 28.2 221.295 28.515 221.205 28.755C221.115 28.995 220.905 29.235 220.575 29.475H210.855Z" fill="#222222"/>
<path d="M240.905 30.015C240.005 30.015 238.985 29.925 237.845 29.745C236.705 29.565 235.565 29.31 234.425 28.98C233.315 28.62 232.295 28.215 231.365 27.765L232.175 21.69C232.415 21.27 232.805 21.06 233.345 21.06C233.495 21.06 233.645 21.075 233.795 21.105C233.975 21.105 234.11 21.135 234.2 21.195L234.515 27.45L233.705 25.695C234.305 26.145 235.025 26.55 235.865 26.91C236.705 27.24 237.56 27.51 238.43 27.72C239.33 27.93 240.185 28.035 240.995 28.035C242.735 28.035 244.145 27.525 245.225 26.505C246.335 25.485 246.89 24.18 246.89 22.59C246.89 21.69 246.695 20.91 246.305 20.25C245.945 19.59 245.27 18.945 244.28 18.315C243.32 17.685 241.94 16.98 240.14 16.2C238.25 15.33 236.75 14.49 235.64 13.68C234.53 12.84 233.735 11.925 233.255 10.935C232.775 9.945 232.535 8.805 232.535 7.515C232.535 5.235 233.3 3.42 234.83 2.07C236.39 0.69 238.445 0 240.995 0C242.225 0 243.545 0.165 244.955 0.494999C246.365 0.825 247.745 1.32 249.095 1.98L248.42 7.83C247.94 7.83 247.55 7.755 247.25 7.605C246.98 7.455 246.83 7.275 246.8 7.065L246.215 2.565L247.16 4.23C246.5 3.54 245.6 2.985 244.46 2.565C243.35 2.145 242.18 1.935 240.95 1.935C239.3 1.935 237.995 2.355 237.035 3.195C236.075 4.035 235.595 5.16 235.595 6.57C235.595 7.44 235.79 8.22 236.18 8.91C236.57 9.57 237.26 10.215 238.25 10.845C239.24 11.475 240.635 12.18 242.435 12.96C244.415 13.83 245.975 14.685 247.115 15.525C248.285 16.365 249.11 17.28 249.59 18.27C250.1 19.23 250.355 20.37 250.355 21.69C250.355 23.34 249.965 24.795 249.185 26.055C248.405 27.315 247.31 28.29 245.9 28.98C244.49 29.67 242.825 30.015 240.905 30.015Z" fill="#222222"/>
</svg>
