<svg width="313" height="117" viewBox="0 0 313 117" fill="none" xmlns="http://www.w3.org/2000/svg">
<path d="M134.38 67.4828C138.447 67.2 142.825 67.464 147.126 68.0092C158.246 69.2873 167.542 74.1341 172.886 75.8793C180.695 78.3699 190.77 82.4941 199.884 88.31C208.899 93.9849 221.896 98.4609 228.63 98.9398C228.82 98.9594 229.009 98.975 229.199 98.9857C232.093 98.8747 235.193 98.7313 237.727 98.3627C240.136 98.0785 242.666 97.058 245.775 95.6977C251.858 93.0278 257.594 90.9222 261.33 89.7582C268.896 87.4549 270.758 86.9287 277.263 83.0434C280.956 80.8427 286.752 78.7597 291.932 78.3979C294.657 78.1657 294.567 79.5092 292.43 81.0551C289.435 83.2617 286.31 84.0273 285.262 86.1352C282.929 90.4604 282.011 92.1298 276.946 92.5541C271.929 92.9696 271.525 97.5805 268.94 98.3461C266.28 99.2412 265.051 96.8603 253.841 105.302C250.304 108.082 246.068 111.322 241.694 112.891C237.584 114.455 234.657 115.139 232.087 115.807C228.701 116.565 225.93 116.597 223.598 116.507C215.841 116.404 205.015 109.394 196.86 105.919C188.434 102.321 173.336 93.7479 166.666 92.8588C160.085 91.8221 160.956 89.3904 156.052 86.7387C152.803 85.0774 149.4 87.0907 146.148 88.476C144.147 89.1939 142.083 89.6766 139.745 89.309C133.002 88.3035 131.883 84.8328 124.076 85.9984C116.387 87.1911 108.395 86.1287 105.274 88.2279C102.238 90.3142 100.912 86.2021 96.3521 88.4203C91.8667 90.6869 88.9498 91.1189 84.3717 91.4154C79.7831 91.5384 66.8891 96.6047 63.5377 100.726C60.1546 104.668 53.8564 105.24 50.5885 106.613C49.5846 107.028 48.7156 107.263 48.0006 107.379C47.6977 107.428 47.4347 107.275 47.2799 107.051L47.2154 106.942C47.0854 106.678 47.0964 106.355 47.3326 106.147C48.6423 104.992 50.4567 103.094 52.3551 100.401C55.9685 95.3902 57.8074 97.1476 63.984 92.3119C70.2418 87.58 73.6361 83.2363 82.9889 81.2719C92.1939 79.654 92.7298 72.5935 106.705 73.6186C120.288 75.2475 120.946 68.6344 134.38 67.4828ZM109.813 35.6791C115.326 33.8402 116.965 35.0748 119.958 36.1781C120.958 36.5521 122.106 36.9391 123.588 37.2982C129.381 38.7996 134.91 32.8829 142.154 35.4115C149.143 38.0739 149.065 41.6451 156.805 43.6449C164.583 45.7659 170.6 51.32 174.289 51.5727C178.01 51.8543 176.411 55.8147 181.123 57.1986C185.831 58.5947 188.133 60.4656 191.167 63.6313C194.139 66.8253 205.148 73.7084 209.935 73.3832C214.592 73.2667 218.344 76.9307 221.506 77.0795C222.404 77.1521 223.19 77.2275 223.826 77.3236C224.096 77.364 224.306 77.5745 224.409 77.8266L224.448 77.9467C224.52 78.2316 224.447 78.5426 224.171 78.6811C222.64 79.4619 220.232 80.4538 216.969 81.3588C210.755 82.767 210.662 80.0403 203.467 78.4818C196.239 76.6658 191.305 76.6778 184.59 71.4272C177.93 66.2071 173.357 70.8198 164.713 62.5941C155.855 54.5488 151.958 60.0317 141.743 57.7807C134.795 56.3634 127.213 53.768 120.876 53.2348C117.753 52.9564 115.001 53.0238 113.016 53.477C106.854 54.8365 99.1469 58.1255 90.3277 61.5434C81.4228 64.868 72.158 73.3815 60.9205 77.268C52.9545 80.1025 41.6453 82.868 32.9635 82.474C29.7428 82.3759 26.9054 82.1285 24.8004 81.7992C20.9551 81.2033 18.6046 80.5843 16.2535 79.9916C13.9854 79.3098 11.2982 78.9902 7.86387 76.1996C3.78148 72.4538 3.45953 67.7224 0.666603 64.0668C-0.72967 62.1983 0.132551 61.2215 2.64512 62.2377C6.35332 63.9067 7.52393 67.3154 9.6832 68.0736C11.8741 68.9383 13.2711 69.2383 14.0426 69.4857C14.867 69.7477 14.7785 69.9885 15.4557 71.3051C16.2402 72.6266 17.8151 72.3854 18.9518 71.8188C20.1441 71.2606 21.1468 70.4465 22.1832 70.7084C24.0463 71.0779 24.2555 73.055 31.7955 71.769C33.101 71.5233 34.612 71.1232 36.358 70.4721C47.361 66.0778 52.9046 61.9119 57.0006 59.4145C60.9985 56.8501 70.94 53.2937 78.1412 48.6547C85.1116 43.7558 102.399 37.7173 109.813 35.6791ZM119.987 0.328522C126.956 -1.17794 141.851 2.73796 151.552 7.15469C162.049 11.0862 177.515 23.698 184.328 25.8275C191.139 28.1516 189.848 30.3944 194.737 33.7846C199.012 36.5146 203.816 33.0113 208.509 32.4154C209.617 32.3147 210.741 32.333 211.891 32.5277C219.343 33.7131 220.495 37.2672 228.932 36.2162C237.208 35.1613 245.555 35.6909 248.733 33.2309C251.771 30.8203 253.508 34.7827 258.224 31.9066C262.858 28.9759 266.022 28.0568 270.991 27.1303C275.948 26.2668 289.835 20.0376 293.791 15.8705C297.771 11.7157 304.732 11.2116 308.341 10.0072C309.472 9.62783 310.441 9.43211 311.226 9.35098C311.559 9.31666 311.819 9.48827 311.951 9.72598L312.003 9.84122C312.102 10.119 312.042 10.4493 311.758 10.6498C310.162 11.774 308.072 13.5626 305.716 16.2797C301.447 21.2746 299.612 19.414 292.876 24.4818C286.156 29.5028 282.799 34.0917 273.121 37.1977C263.453 39.9779 263.735 47.5098 248.029 48.0004C232.897 47.3619 231.936 53.6266 217.252 54.4994C214.003 54.619 210.748 54.4539 207.342 54.1127C193.253 52.9768 181.401 44.7701 175.451 41.5824C167.417 37.4979 157.792 31.0875 148.921 24.9789C140.893 19.414 130.613 17.7984 120.933 18.394C119.534 18.4545 118.265 18.5182 117.075 18.5824C111.742 18.7618 108.252 20.6379 101.88 26.3383C95.7299 31.5718 88.6986 34.693 84.4947 35.975C75.8006 38.5258 73.8612 38.708 66.0699 41.8295C61.5863 43.5622 54.9143 44.6024 49.2857 43.89C46.334 43.5515 46.7964 42.254 49.4381 41.1791C53.1464 39.6284 56.5774 39.4467 58.2184 37.5219C61.552 33.6394 62.7564 32.1736 68.1139 32.3705C73.5133 32.4914 74.2337 27.9164 76.9693 27.2436C79.3585 26.3102 81.7218 29.5086 91.1617 19.4232C94.9871 14.6486 99.3451 8.0005 105.472 4.88516C111.232 1.78648 115.627 1.12726 118.991 0.488678C119.331 0.431301 119.663 0.37862 119.987 0.328522Z" fill="#C8FBFB"/>
</svg>
